<svg width="28" height="28" viewBox="0 0 28 28" fill="none" xmlns="http://www.w3.org/2000/svg">
<path d="M11.3333 4.73334V2.00001C11.3342 1.48232 11.0353 1.01093 10.5667 0.790914C10.0981 0.570896 9.54445 0.642018 9.14667 0.973341L1.14667 7.64001C0.840977 7.89331 0.664062 8.26967 0.664062 8.66667C0.664062 9.06368 0.840977 9.44003 1.14667 9.69334L9.14667 16.36C9.38655 16.5588 9.68847 16.6673 10 16.6667C10.1932 16.6677 10.3842 16.6268 10.56 16.5467C11.0326 16.328 11.3346 15.8541 11.3333 15.3333V12.7333C16.6609 13.2547 21.2175 16.7849 23.0533 21.8133L24.7467 26.4533C24.9375 26.9813 25.4386 27.3331 26 27.3333C26.0749 27.3471 26.1517 27.3471 26.2267 27.3333C26.8734 27.2218 27.3429 26.6562 27.3333 26V22C27.3253 12.9501 20.3564 5.42948 11.3333 4.73334Z" fill="#140430"/>
</svg>
