<svg width="21" height="20" viewBox="0 0 21 20" fill="none" xmlns="http://www.w3.org/2000/svg">
<path fill-rule="evenodd" clip-rule="evenodd" d="M0.5 10C0.5 4.47715 4.97715 0 10.5 0C13.1522 0 15.6957 1.05357 17.5711 2.92893C19.4464 4.8043 20.5 7.34784 20.5 10C20.5 15.5228 16.0228 20 10.5 20C4.97715 20 0.5 15.5228 0.5 10ZM9.21 13.71L15.21 7.71C15.6021 7.31788 15.6021 6.68212 15.21 6.29C14.8179 5.89788 14.1821 5.89788 13.79 6.29L8.5 11.59L7.21 10.29C6.95634 10.0363 6.58663 9.93728 6.24012 10.0301C5.89362 10.123 5.62297 10.3936 5.53012 10.7401C5.43728 11.0866 5.53634 11.4563 5.79 11.71L7.79 13.71C7.97777 13.8993 8.23336 14.0058 8.5 14.0058C8.76664 14.0058 9.02223 13.8993 9.21 13.71Z" fill="#F6D303"/>
</svg>
