<svg width="32" height="20" viewBox="0 0 32 20" fill="none" xmlns="http://www.w3.org/2000/svg">
<path d="M12.1595 10.9208L13.5698 10.9327C15.3035 9.98211 18.4639 9.34583 22.0757 9.34583C25.868 9.34583 29.1626 10.0473 30.8306 11.0776L31.9917 11.0873V12.6028C31.9917 12.6061 31.9917 12.6094 31.9917 12.6129C31.9917 14.4167 27.5514 15.8791 22.0757 15.8791C16.6 15.8791 12.1595 14.4167 12.1595 12.6129C12.1595 12.6094 12.1595 12.6061 12.1595 12.6028V10.9208Z" fill="url(#paint0_linear_42_3622)"/>
<path d="M22.0757 14.2838C16.5992 14.2838 12.1597 12.8214 12.1597 11.0174C12.1597 9.21339 16.5992 7.75098 22.0757 7.75098C27.5522 7.75098 31.9917 9.21339 31.9917 11.0174C31.9917 12.8214 27.5522 14.2838 22.0757 14.2838Z" fill="#FF922E"/>
<path d="M22.0757 13.0234C18.7109 13.0234 15.9832 12.1249 15.9832 11.0166C15.9832 9.90822 18.7109 9.00977 22.0757 9.00977C25.4405 9.00977 28.1682 9.90822 28.1682 11.0166C28.1682 12.1249 25.4405 13.0234 22.0757 13.0234Z" fill="white"/>
<path d="M22.0696 8.95488H22.352C22.5719 8.95796 22.7882 8.96485 23.0012 8.97553L22.9321 9.12773C22.6488 9.1139 22.3584 9.10687 22.0696 9.10687V8.95312V8.95488ZM23.9121 9.04559L23.9341 9.04801H23.9409H23.9451H23.9477H23.9517H23.9547H23.9585H23.9616H23.9655H23.9684H23.9723H23.9873H23.9899H24.0205H24.0231H24.0343H24.037H24.0449H24.0473H24.0504H24.0563H24.0594H24.0625H24.0655H24.0719H24.0783H24.0858H24.089H24.0921H24.0954H24.1003H24.1036H24.1066H24.1099H24.1167H24.1236H24.1304H24.137H24.1438C24.363 9.08842 24.5757 9.12475 24.7817 9.15695L24.579 9.29575C24.3199 9.25468 24.0493 9.21976 23.7747 9.19209L23.9119 9.04471L23.9121 9.04559ZM25.5911 9.31069C25.8401 9.3667 26.0762 9.42819 26.2978 9.49496L26.3031 9.49672L26.3083 9.49826H26.3108H26.313H26.3154H26.3173H26.3195L26.0021 9.61115C25.7909 9.5468 25.5625 9.48728 25.3255 9.4339L25.5893 9.30652L25.5911 9.31069ZM26.9588 9.728C27.1402 9.8014 27.3169 9.88611 27.4877 9.98167L27.0834 10.059C26.9253 9.97069 26.7619 9.89226 26.5941 9.8242L26.9579 9.72756L26.9588 9.728ZM27.8956 10.2584C27.9813 10.3283 28.0597 10.4067 28.1295 10.4923C28.1302 10.4931 28.1308 10.4939 28.1313 10.4947C28.1318 10.4956 28.1323 10.4963 28.133 10.4969L28.1348 10.4991L28.1363 10.5013L28.1381 10.5035L28.1399 10.5057L28.1416 10.5079V10.509V10.5101V10.5112V10.5123V10.5136C28.1416 10.5142 28.1416 10.5147 28.1416 10.5152L28.1432 10.5176L28.146 10.5215L27.6906 10.5562C27.6173 10.4548 27.5309 10.3634 27.4336 10.2845L27.8682 10.2279L27.8956 10.2584ZM28.3148 10.8563C28.3214 10.8838 28.3263 10.9118 28.3293 10.9399C28.3293 10.9399 28.3293 10.9415 28.3293 10.9424V10.9448V10.9472V10.9487V10.95V10.9536V10.9569V10.9867V10.9891V10.9902V10.9913V10.9937V10.9975V10.9999V11.001V11.0021V11.0045V11.0056V11.0067V11.0091V11.0102V11.0113V11.0124V11.0157V11.0168V11.0179V11.019V11.0201V11.0212V11.0234V11.0245V11.0267C28.3293 11.0267 28.3293 11.0291 28.3293 11.0302V11.0324C28.328 11.0576 28.3254 11.0828 28.3214 11.1077C28.3216 11.1085 28.3216 11.1092 28.3214 11.1099V11.111V11.113V11.1181V11.1203C28.3201 11.1273 28.3188 11.1341 28.3173 11.1411L27.851 11.1304C27.8712 11.0361 27.8701 10.9386 27.8477 10.8448L28.3137 10.833L28.3148 10.8563ZM27.7273 11.4346L28.1836 11.4682C28.1381 11.5347 28.0866 11.597 28.0297 11.6542L28.0275 11.6564L28.0253 11.6586L28.0231 11.661H28.022V11.6621L28.0209 11.6632H28.0198H28.0187L28.0176 11.6643V11.6654V11.6665H28.0165L28.0154 11.6676L28.0132 11.6696L28.011 11.6715L28.0089 11.6737L28.0067 11.6759C28.0049 11.6773 28.0033 11.6788 28.0018 11.6803C27.9825 11.6981 27.9625 11.7159 27.9418 11.7335L27.5057 11.6779C27.5891 11.606 27.6635 11.5243 27.7273 11.4346ZM27.1052 11.9639L27.511 12.0403L27.4855 12.055L27.4817 12.057L27.4784 12.0588H27.4769H27.4754H27.4738H27.4725H27.4714H27.4701H27.4688H27.4674H27.4659H27.4639L27.4606 12.0605L27.4573 12.0623C27.3704 12.11 27.2782 12.1563 27.1806 12.2011L27.1764 12.2031L27.1724 12.2048H27.17H27.1687H27.1665H27.1652H27.1632L27.1597 12.2063H27.1582H27.1571H27.1557H27.1546H27.1535H27.1522H27.1509H27.1496H27.1478H27.1463H27.1445H27.143H27.141L27.1371 12.2081L27.1329 12.2099L27.1285 12.2116C27.091 12.2286 27.0526 12.2452 27.0133 12.2613L26.6464 12.1659C26.8124 12.0975 26.9739 12.0186 27.13 11.9298L27.1052 11.9639ZM26.0364 12.4097L26.3565 12.522L26.2734 12.5472L26.2681 12.5488L26.2628 12.5503H26.2604H26.258H26.2554H26.2529H26.2505L26.2457 12.5516H26.2433H26.2409H26.2387H26.2365H26.234H26.2321H26.2299H26.2277H26.2252H26.223H26.2213H26.2191H26.2171H26.2149H26.2134H26.2112H26.2094H26.2074H26.2063H26.2048H26.2035H26.2019H26.2008H26.1989H26.1975H26.1964H26.1945H26.1934H26.1921H26.191H26.189H26.1879H26.1866H26.1852H26.1835H26.1819H26.1804H26.1791H26.1778H26.1764H26.1747H26.1736H26.1725H26.1705H26.1694H26.1681H26.167H26.165H26.1628H26.1608H26.1597H26.1582H26.156H26.1545H26.152H26.1507H26.1496H26.1474H26.1452H26.143H26.1404H26.1389H26.1362H26.1347H26.1323H26.1307H26.1279L26.1232 12.5529L26.1182 12.5543H26.1153H26.1138H26.1107H26.1092H26.1063L26.1015 12.5556L26.0964 12.5569H26.0936H26.092H26.089H26.0874H26.0846L26.0795 12.5584L26.0744 12.5597H26.0714H26.0696H26.0663H26.0646H26.061L26.0558 12.5613L26.0505 12.5628L26.0452 12.5641L26.0362 12.5666L26.0309 12.5679L26.0256 12.5694L26.0204 12.5707L26.0114 12.5731L26.0061 12.5747L26.0008 12.576L25.9955 12.5773L25.9865 12.5797L25.981 12.5813L25.9755 12.5826L25.9703 12.5841L25.9648 12.5854H25.9612L25.956 12.5868L25.9505 12.5881L25.9452 12.5894H25.9419H25.9401H25.9368H25.9351H25.9316L25.9263 12.5907L25.9212 12.592H25.9182H25.9164H25.9135H25.9118H25.9085L25.9034 12.5933L25.8984 12.5947H25.8951H25.8924H25.8898H25.8883H25.8854H25.8825H25.8797L25.8749 12.596H25.8724H25.8709H25.8685H25.8669H25.8658H25.8636H25.8148H25.8135H25.8113H25.8102H25.8087H25.8069H25.8045H25.8023H25.8008H25.7984H25.7973H25.7959H25.7937H25.7913H25.7898H25.788H25.7867H25.7856H25.7834H25.7821H25.7808H25.7788H25.7775H25.7709H25.7693H25.7676H25.7665H25.7647H25.7634H25.7619H25.7608H25.7583H25.7566H25.7544H25.7526H25.7504H25.7493H25.7476H25.7454H25.7443H25.7425H25.7405H25.7381H25.7361H25.7337H25.7318H25.7293H25.7274H25.7249H25.7225H25.7199H25.7172H25.7148H25.7122H25.7098H25.7069H25.7043H25.7016L25.6961 12.5973H25.6935H25.6909H25.6882H25.6854H25.6827L25.677 12.5986L25.6713 12.5999L25.6656 12.6013L25.6476 12.6054L25.3816 12.4787C25.6179 12.4249 25.8443 12.3647 26.054 12.2997L26.0364 12.4097ZM24.619 12.7326L24.8257 12.8712C24.7826 12.8782 24.7393 12.885 24.6957 12.8916H24.6894H24.6834H24.6777H24.6749H24.6711H24.6685H24.6577H24.6557H24.6463H24.6437H24.6417H24.6342H24.6313H24.6291H24.6263H24.6228H24.6197H24.6168H24.6138L24.6076 12.8927H24.6012H24.5949C24.3906 12.922 24.1807 12.948 23.9653 12.9707L23.8246 12.8237C24.0985 12.7954 24.3682 12.7598 24.6265 12.7181L24.619 12.7326ZM22.9759 12.9035L23.0484 13.0555H22.9966H22.9897H22.9649H22.9429C22.673 13.0678 22.3971 13.0746 22.1173 13.0752L22.1138 12.9215C22.4026 12.9215 22.6925 12.9129 22.9757 12.8984L22.9759 12.9035ZM20.4073 12.8472C20.6825 12.8745 20.9665 12.8949 21.2514 12.9081L21.1855 13.0605L21.0964 13.0563H21.0894H21.0824H20.9096H20.9028H20.896H20.8892H20.8821C20.6756 13.0433 20.473 13.027 20.2743 13.0074L20.4073 12.8472ZM18.8486 12.6056C19.0877 12.6584 19.3408 12.7056 19.6006 12.746L19.4012 12.8852C19.2479 12.8615 19.0983 12.8358 18.9523 12.8081L18.9304 12.8038L18.9244 12.8027L18.9185 12.8016L18.9125 12.8005H18.9088H18.9064H18.9029H18.9009H18.8974H18.8919L18.8864 12.7994H18.8833H18.8802H18.8774H18.8758H18.8686H18.8662H18.8635H18.862H18.8587H18.8574H18.8552H18.8512H18.849H18.8477H18.8464H18.8451H18.8429H18.84H18.8387H18.8354H18.8336H18.8321H18.8303H18.8281H18.8262H18.8237H18.8202H18.8176H18.8156H18.8132H18.811H18.8084H18.8062H18.8037H18.8011H18.7985H18.7958H18.7936H18.791H18.7888H18.7861H18.7837H18.7811H18.7756H18.7727H18.7699H18.767H18.7642H18.7613H18.7585H18.7556L18.7497 12.7983L18.7439 12.7972L18.738 12.7961L18.7321 12.7947C18.689 12.7858 18.6463 12.7767 18.6041 12.7673L18.8466 12.6052L18.8486 12.6056ZM17.5736 12.223C17.7552 12.2966 17.9552 12.3662 18.1671 12.4299L17.8524 12.5439C17.6218 12.4747 17.4072 12.4001 17.2103 12.3203L17.5717 12.2226L17.5736 12.223ZM16.6944 11.7344C16.8146 11.8304 16.943 11.9157 17.0779 11.9896L16.6757 12.068C16.6519 12.0548 16.6286 12.0416 16.606 12.0282L16.6038 12.0269H16.6027L16.6009 12.0258H16.5996H16.5985H16.5972H16.5959H16.5946H16.5932H16.5917H16.5904H16.5888H16.5875H16.586H16.5847H16.5829H16.5814L16.5796 12.0247L16.5763 12.0225L16.573 12.0205C16.5165 11.9861 16.4627 11.9511 16.4119 11.9153L16.4088 11.9131L16.4057 11.9109L16.4027 11.9087L16.3998 11.9068H16.3985H16.3969L16.3956 11.9057H16.3943H16.3932H16.3919H16.3908H16.3895H16.3884H16.3871H16.3857H16.3844L16.382 11.9037L16.3794 11.9017L16.3767 11.8997C16.3519 11.8811 16.3279 11.8624 16.3046 11.8435L16.7379 11.7855L16.6944 11.7344ZM16.2938 11.1824C16.3216 11.2839 16.3682 11.3792 16.4312 11.4633L15.9764 11.4991C15.9539 11.4683 15.9331 11.4362 15.914 11.4031L15.9127 11.401V11.3996V11.3983V11.3972V11.3959V11.3948V11.3933V11.3922V11.3911V11.39V11.3878C15.9127 11.387 15.9127 11.3863 15.9127 11.3856L15.9114 11.3834C15.9114 11.3834 15.9114 11.3818 15.9114 11.3812L15.91 11.379C15.8849 11.3299 15.8648 11.2784 15.85 11.2252V11.2241V11.2228V11.2217V11.2206L16.3158 11.2077L16.2938 11.1824ZM15.945 10.5824L16.402 10.6147C16.3447 10.7002 16.3046 10.796 16.2842 10.8969L15.8175 10.8877C15.8215 10.8657 15.8265 10.8455 15.8322 10.8246V10.8222V10.8198V10.8187V10.8176V10.8165V10.8154V10.8143V10.8132V10.8121V10.8097V10.7877V10.7866V10.7855V10.7842V10.7829V10.7814V10.7798V10.7783V10.7759C15.8321 10.7751 15.8321 10.7743 15.8322 10.7735V10.771V10.7686C15.8323 10.7678 15.8323 10.767 15.8322 10.7662V10.7638C15.8556 10.7045 15.8851 10.6479 15.9202 10.5947L15.945 10.5824ZM16.6045 10.0091L17.012 10.0845C16.8825 10.1592 16.7601 10.2456 16.6464 10.3425L16.2088 10.2872L16.2396 10.261L16.2411 10.2597L16.2426 10.2584L16.2442 10.2573L16.2455 10.2562V10.2551L16.2468 10.254V10.2529L16.2481 10.2518H16.2494H16.2508L16.2534 10.2498L16.256 10.2477C16.366 10.1595 16.4825 10.0798 16.6045 10.0091ZM17.7475 9.52461L18.07 9.63575C17.8616 9.70164 17.6666 9.77236 17.4899 9.84704L17.121 9.75259C17.2076 9.71592 17.2982 9.68011 17.3921 9.64541L17.3969 9.64366L17.4015 9.64212L17.4061 9.64058H17.4085H17.4105H17.4125H17.414H17.416H17.4176H17.4195H17.4215H17.4233H17.4253H17.4266H17.4283H17.4297H17.4314H17.4325H17.434H17.4354H17.4373H17.4387H17.4409L17.4453 9.63904L17.4497 9.63751L17.4525 9.63641H17.4541H17.4569L17.4615 9.63487L17.4661 9.63311C17.5522 9.6028 17.6407 9.57353 17.7317 9.54526L17.7475 9.52461ZM19.2715 9.17166L19.4806 9.30937C19.2238 9.35154 18.975 9.40074 18.7384 9.45521L18.4694 9.32826C18.5964 9.29898 18.7269 9.27109 18.8607 9.24458L18.8668 9.24326H18.873L18.895 9.23887H18.9013L18.9075 9.23755H18.9106L18.9231 9.23514H18.9295L18.9356 9.23382L18.9576 9.22964L18.9638 9.22855L18.9699 9.22723L18.9763 9.22613L18.9857 9.22437L18.9919 9.22306L19.0005 9.21844L19.0066 9.21735L19.0128 9.21603L19.0222 9.21427L19.0286 9.21317L19.035 9.21207L19.0411 9.21098H19.0473L19.0537 9.20988H19.0567H19.0629H19.0691L19.0752 9.20878L19.0816 9.20768L19.088 9.20658H19.091L19.0974 9.20548L19.1036 9.20439L19.1097 9.20329H19.1126H19.1157H19.1185H19.1214H19.1242H19.1271H19.1302L19.1361 9.20219H19.1418H19.1447H19.1473H19.1502H19.1526H19.1552H19.1574H19.1601H19.1625H19.1649H19.1678H19.1702H19.173H19.1752H19.1779H19.1798H19.1825H19.1836H19.1856H19.188H19.1902H19.1946H19.1968H19.2203H19.2227H19.2269H19.2291H19.2335H19.2357H19.2383H19.2405H19.2447H19.2475H19.2493H19.2524H19.2541H19.2579L19.2638 9.20109H19.2687L19.2715 9.17166ZM21.0437 8.98234L21.1195 9.13432C20.8357 9.1497 20.5533 9.17232 20.28 9.20153L20.1358 9.05504C20.1961 9.04845 20.2565 9.04252 20.3176 9.03659H20.3242H20.3306H20.3337H20.3853H20.3886H20.3921H20.399H20.4058H20.4126C20.6186 9.01814 20.8285 9.00307 21.0424 8.99134L21.0437 8.98234Z" fill="#FF922E"/>
<path d="M22.0758 8.69805C21.1591 8.69573 20.2433 8.75665 19.3349 8.88035C18.4965 8.9972 17.7434 9.16434 17.0967 9.37738C16.45 9.59043 15.9425 9.83862 15.5877 10.1147C15.2206 10.4002 15.0344 10.7044 15.0344 11.0174C15.0344 11.3304 15.2197 11.6343 15.5877 11.9199C15.9425 12.196 16.45 12.4441 17.0967 12.657C17.7434 12.8698 18.4965 13.0374 19.3349 13.1542C20.2433 13.2777 21.1591 13.3386 22.0758 13.3363C22.9925 13.3386 23.9082 13.2777 24.8165 13.1542C25.6549 13.0374 26.408 12.87 27.0547 12.657C27.7014 12.4439 28.2092 12.1964 28.5627 11.9199C28.9298 11.6343 29.116 11.3302 29.116 11.017C29.116 10.7038 28.9298 10.4002 28.5627 10.1143C28.2081 9.83796 27.7003 9.58999 27.0536 9.37694C26.4069 9.1639 25.6538 8.99676 24.8154 8.87991C23.9072 8.75621 22.9914 8.69531 22.0747 8.69762M22.0747 8.65918C26.028 8.65918 29.2329 9.71474 29.2329 11.017C29.2329 12.3192 26.0291 13.3754 22.0758 13.3754C18.1226 13.3754 14.9175 12.3196 14.9175 11.0174C14.9175 9.71518 18.1213 8.65962 22.0758 8.65962L22.0747 8.65918Z" fill="#F7FAF6"/>
<path d="M22.0758 8.8396C21.2151 8.83742 20.3554 8.89459 19.5026 9.01069C18.7154 9.12051 18.0078 9.27733 17.4014 9.47741C16.7949 9.6775 16.3174 9.91031 15.9846 10.1695C15.6397 10.4379 15.465 10.7232 15.465 11.0171C15.465 11.3109 15.6408 11.5962 15.9846 11.8646C16.3174 12.124 16.7942 12.3568 17.4014 12.5569C18.0085 12.757 18.7148 12.9138 19.5026 13.0236C20.3554 13.1397 21.2151 13.1969 22.0758 13.1947C22.936 13.1968 23.7953 13.1396 24.6477 13.0236C25.4348 12.9138 26.1424 12.7568 26.7491 12.5569C27.3558 12.357 27.8339 12.124 28.167 11.8646C28.5116 11.5962 28.6864 11.3111 28.6864 11.0171C28.6864 10.723 28.5116 10.4379 28.167 10.1695C27.8339 9.91031 27.3574 9.67728 26.7502 9.47741C26.1431 9.27755 25.4359 9.12029 24.6488 9.01069C23.7961 8.89459 22.9364 8.83742 22.0758 8.8396ZM22.0758 8.80116C25.7907 8.80116 28.8022 9.79325 28.8022 11.0171C28.8022 12.2409 25.7907 13.2332 22.0747 13.2332C18.3587 13.2332 15.3469 12.2411 15.3469 11.0171C15.3469 9.79303 18.3602 8.80072 22.0758 8.80072V8.80116Z" fill="#F7FAF6"/>
<path d="M18.7913 11.8521C18.8612 11.8429 18.9324 11.8553 18.9951 11.8877H20.0014L20.1436 12.0184C20.175 12.0472 20.2581 12.0665 20.3511 12.0665L20.1566 11.8888H20.3039L20.4456 12.0182C20.4773 12.047 20.5604 12.0663 20.6534 12.0663L20.459 11.8888H20.6052L20.7468 12.018C20.7784 12.0467 20.8615 12.0661 20.9545 12.0661L20.7604 11.889H21.8457H22.588C22.5607 11.8548 22.4666 11.8308 22.3592 11.8308H21.7969L20.935 10.8311H22.4543C22.85 11.2466 23.2457 11.7157 23.6414 12.1421C23.7073 12.2141 23.5462 12.3026 23.3178 12.3033C21.9169 12.3085 20.5162 12.2982 19.1153 12.3033C19.0353 12.3033 18.9647 12.2861 18.9438 12.2607L18.6691 11.9275C18.6429 11.8958 18.6954 11.8618 18.7913 11.8521Z" fill="#FF922E"/>
<path d="M19.9896 9.73151V9.73041H21.5444C21.6899 9.73041 21.8082 9.76932 21.8082 9.81834H21.0349C21.0709 9.85043 21.1624 9.87219 21.2663 9.87307L21.5629 9.87615C21.6965 10.0192 21.83 10.1624 21.9634 10.3059H20.482L20.0624 9.8179H20.0215C19.9538 9.8179 19.8938 9.80163 19.8863 9.77943C19.8788 9.75723 19.9254 9.73612 19.9896 9.73151Z" fill="url(#paint1_linear_42_3622)"/>
<path d="M18.7468 10.4696C18.7468 10.4652 18.7488 10.461 18.7501 10.4566C18.8321 10.1551 19.6107 9.92578 20.5306 9.92578H23.1911C23.4122 9.92578 23.6087 9.97147 23.6852 10.0398L23.8945 10.2067H24.1266C24.2869 10.2067 24.4381 10.2313 24.5357 10.2726H23.2183L22.8743 10.2743C22.7031 10.2754 22.5811 10.3266 22.607 10.3798L22.9178 10.6607H23.0642L22.7679 10.3901H22.8609L23.1572 10.662H23.3445L23.0477 10.3914C23.5375 10.3883 23.934 10.385 24.4236 10.382C24.5416 10.382 24.6509 10.4026 24.7056 10.4369C24.7256 10.4485 24.7428 10.4643 24.7562 10.4832C24.7724 10.5085 24.7082 10.5322 24.6304 10.5289H24.6278C24.5429 10.5247 24.5065 10.5001 24.5038 10.4984H23.6514C23.6514 10.5203 23.707 10.5392 23.7753 10.5392H24.2209C24.8382 11.1434 25.2705 11.5788 25.4501 11.7134C25.6297 11.848 25.4765 11.9036 25.3459 11.9247C25.2859 11.9339 25.2251 11.9384 25.1644 11.9381H24.0398L23.2924 11.2181H23.5122C23.632 11.2181 23.7292 11.1863 23.7292 11.1467H22.4736C21.9414 11.3934 21.4092 11.6427 20.877 11.8895C20.3655 11.8895 19.8542 11.8869 19.3427 11.8869L21.118 11.1006L20.5313 11.1059C19.652 11.1059 18.8954 10.8961 18.7635 10.6099C18.7426 10.5663 18.7367 10.5169 18.7468 10.4696ZM23.2632 10.7586H23.4353L23.3513 10.6822H23.1796L23.2632 10.7586ZM23.0244 10.7586H23.155L23.0717 10.6826H22.9411L23.0244 10.7586ZM22.2551 10.7586C22.4226 10.7586 22.627 10.7586 22.8684 10.7586L22.7846 10.6831H22.1718L22.2551 10.7586ZM22.762 10.6622L22.4736 10.3998C22.2247 10.4009 22.0183 10.4013 21.866 10.4015L22.1518 10.662L22.762 10.6622ZM21.9614 10.7593H22.1005L22.0168 10.6831H21.8774L21.9614 10.7593ZM21.9944 10.6622L21.7086 10.4017H21.5692L21.855 10.662L21.9944 10.6622ZM21.187 10.7132C21.3917 10.745 21.5987 10.7603 21.806 10.7591L21.7222 10.6826C21.5657 10.6853 21.4316 10.6844 21.3266 10.6826C21.1305 10.6791 21.0408 10.6725 20.9546 10.6569C20.9195 10.6509 20.8847 10.6431 20.8504 10.6334C20.9607 10.6685 21.0735 10.6951 21.1879 10.713L21.187 10.7132ZM20.7531 10.5651C20.7884 10.6091 20.9269 10.631 21.001 10.6418C21.1006 10.6569 21.1876 10.6589 21.3576 10.6622C21.4916 10.6649 21.6079 10.664 21.7 10.6622L21.4156 10.4026C21.3771 10.4004 21.0707 10.385 20.877 10.4529C20.8518 10.4617 20.7108 10.5111 20.7539 10.5649L20.7531 10.5651Z" fill="#FF922E"/>
<path d="M21.8652 10.4021C22.0175 10.4021 22.2239 10.4021 22.4728 10.4004L22.7629 10.6629H22.1503L21.8652 10.4021ZM22.6627 10.6396L22.424 10.4237L21.9648 10.425L22.1998 10.6396H22.6627Z" fill="white"/>
<path d="M23.1545 10.7588L23.0246 10.7586L22.9407 10.6827H23.0714L23.1545 10.7588Z" fill="white"/>
<path d="M23.4353 10.7589H23.2632L23.1797 10.6826H23.3513L23.4353 10.7589ZM23.3021 10.7055H23.2801L23.3131 10.7356H23.3351L23.3021 10.7055Z" fill="white"/>
<path d="M18.677 10.4696C18.6779 10.4651 18.679 10.4607 18.6803 10.4562C18.7214 10.3049 18.9342 10.165 19.2791 10.0627C19.624 9.9603 20.0669 9.9043 20.5301 9.9043H23.1912C23.4403 9.9043 23.6649 9.95613 23.7507 10.033L23.8549 10.116L23.9415 10.1841H24.1268C24.3075 10.1841 24.4813 10.2122 24.5915 10.2594L24.6794 10.2966H23.2196L22.8771 10.2983C22.8248 10.2974 22.7727 10.3057 22.7232 10.3227C22.6907 10.3354 22.6738 10.3515 22.6749 10.3677H22.9103L22.927 10.3831L23.2066 10.6388H23.2446L23.1363 10.5399L22.9824 10.3991L22.9492 10.3688H23.047L23.7379 10.3642L24.4224 10.3598H24.4301C24.5723 10.3598 24.702 10.3855 24.7682 10.4272C24.791 10.4403 24.8107 10.4582 24.8258 10.4797C24.8374 10.498 24.8238 10.5166 24.7882 10.5311C24.7427 10.547 24.6946 10.5544 24.6464 10.5531C24.6385 10.5531 24.6302 10.5531 24.6222 10.5531H24.6181C24.5663 10.552 24.5151 10.5417 24.4668 10.5228H24.2762L24.2868 10.5331C24.4064 10.6503 24.5189 10.7608 24.6244 10.8648C25.0575 11.2904 25.3703 11.5979 25.5136 11.7055C25.7227 11.8621 25.5171 11.9241 25.3762 11.9471C25.3059 11.9578 25.2348 11.963 25.1637 11.9627H23.9905L23.9742 11.9471L23.2268 11.2272L23.1952 11.1966H23.513C23.5574 11.1988 23.6016 11.1901 23.6419 11.1714H22.5107C22.2515 11.2917 21.9884 11.4143 21.7338 11.5329C21.4832 11.6497 21.2247 11.7701 20.9697 11.8885H20.8838C21.414 11.6425 21.9442 11.3941 22.4746 11.1483H23.73C23.73 11.1878 23.6328 11.2197 23.513 11.2197H23.2932L24.0406 11.9396H25.1645C25.2253 11.94 25.286 11.9355 25.3461 11.9263C25.4767 11.9043 25.6319 11.8509 25.4503 11.715C25.2687 11.579 24.8383 11.145 24.2211 10.5408H23.7764C23.708 10.5408 23.6524 10.5223 23.6524 10.4999H24.5049C24.5075 10.5017 24.544 10.5263 24.6288 10.5305H24.6462C24.7172 10.5305 24.7722 10.5085 24.7561 10.4846C24.7428 10.4657 24.7255 10.4499 24.7056 10.4382C24.6517 10.4044 24.5453 10.3833 24.4297 10.3833H24.4235C23.934 10.3864 23.5374 10.3897 23.0477 10.3928L23.3444 10.6634H23.1572L22.8608 10.3928H22.7679L23.0642 10.6634H22.9178L22.6072 10.3818C22.5812 10.3286 22.7032 10.2775 22.8745 10.2764L23.2185 10.2746H24.5359C24.4383 10.2329 24.287 10.2087 24.1268 10.2087H23.8946L23.6854 10.0418C23.6098 9.97348 23.4124 9.9278 23.1912 9.9278H20.5301C19.6108 9.9278 18.8322 10.1571 18.7496 10.4587C18.7483 10.463 18.7472 10.4672 18.7463 10.4716C18.7366 10.5189 18.7428 10.5679 18.7639 10.6113C18.8958 10.8968 19.6526 11.1072 20.5316 11.1072L21.1183 11.102L19.3431 11.8883H19.2552L19.2861 11.8746L20.3193 11.4171L20.9757 11.1263L20.5334 11.1303H20.5316C20.0887 11.1303 19.6592 11.0785 19.3226 10.9842C18.9861 10.89 18.761 10.7582 18.6948 10.6146C18.6731 10.5695 18.6669 10.5186 18.677 10.4696ZM22.6755 10.3761L22.707 10.4037L22.7021 10.3991L22.6755 10.375V10.3761Z" fill="white"/>
<path d="M22.8694 10.7587H22.6766H22.2561L22.1728 10.6826H22.7856L22.8694 10.7587ZM22.7375 10.7061H22.2737L22.3062 10.7358H22.77L22.7375 10.7061Z" fill="white"/>
<path d="M20.8513 10.6335C20.8856 10.6432 20.9204 10.6511 20.9555 10.6571C21.0435 10.6727 21.1314 10.679 21.3275 10.6828C21.3848 10.6828 21.451 10.6843 21.5253 10.6843C21.5866 10.6843 21.653 10.6843 21.7231 10.6828L21.8069 10.7593C21.5996 10.7606 21.3927 10.7452 21.1879 10.7133C21.0738 10.6953 20.9613 10.6686 20.8513 10.6335ZM21.7042 10.7347L21.6737 10.7065C21.6236 10.7065 21.5732 10.7076 21.5235 10.7076C21.4576 10.7076 21.389 10.7076 21.3226 10.7059H21.3031C21.4361 10.723 21.5701 10.7326 21.7042 10.7347Z" fill="white"/>
<path d="M21.3585 10.6625C21.1885 10.6592 21.1015 10.6573 21.0019 10.6421C20.9278 10.6307 20.7893 10.6096 20.7539 10.5654C20.71 10.5115 20.8518 10.4621 20.8779 10.453C21.0059 10.4091 21.1833 10.3996 21.3 10.3996C21.3595 10.3996 21.4035 10.4018 21.4165 10.4027L21.7009 10.6625C21.6506 10.6625 21.5932 10.6641 21.5297 10.6641C21.4767 10.6641 21.4185 10.6636 21.3585 10.6625ZM21.365 10.4238C21.3472 10.4238 21.325 10.4238 21.2991 10.4238C21.1892 10.4238 21.0369 10.4319 20.9283 10.47C20.8861 10.4847 20.7911 10.5232 20.821 10.5605C20.8478 10.5944 20.9621 10.6118 21.0305 10.6221C21.1167 10.6353 21.1899 10.637 21.3617 10.6405C21.4171 10.6416 21.4734 10.6421 21.5288 10.6421H21.6016L21.365 10.4238Z" fill="white"/>
<path d="M21.571 10.4023H21.7103L21.9961 10.663H21.8567L21.571 10.4023Z" fill="white"/>
<path d="M21.9624 10.7595L21.8784 10.6827H22.0178L22.1016 10.759H21.9624V10.7595Z" fill="white"/>
<path d="M25.1004 8.69168C24.0934 8.55405 23.0781 8.48634 22.0618 8.489V7.75085H22.0759C23.4607 7.75085 24.7777 7.84428 25.9744 8.01332L25.1004 8.69168Z" fill="#F7FAF6"/>
<path d="M17.2601 8.16132L18.2915 8.77388C17.3738 8.94168 16.5789 9.16504 15.9293 9.43761L14.26 9.00647C15.0758 8.66296 16.096 8.3748 17.2601 8.16132Z" fill="white"/>
<path d="M31.7261 11.8587V13.3658C31.4144 13.8005 30.8389 14.2017 30.0574 14.5501V12.9467L31.6841 11.8009C31.6982 11.82 31.7122 11.8393 31.7261 11.8587Z" fill="#EDE8E8"/>
<path d="M26.4048 15.5513C25.2397 15.7377 23.947 15.8515 22.5813 15.8739V14.2789L26.4048 13.9561V15.5513Z" fill="#EDE8E8"/>
<path d="M17.6436 15.5347C16.4295 15.3344 15.3574 15.0546 14.4909 14.7159V13.2296L17.6436 14.0104V15.5347Z" fill="#EDE8E8"/>
<path d="M12.1596 12.6122C12.1596 12.6087 12.1596 12.6054 12.1596 12.6021V10.9208L12.2884 10.9219L12.4236 11.7684V13.3634C12.2521 13.1222 12.1596 12.8708 12.1596 12.6122Z" fill="#EDE8E8"/>
<path d="M14.2745 11.019C14.2745 11.2187 14.344 11.4172 14.481 11.6092L12.4232 11.7686C12.2509 11.527 12.1595 11.2758 12.1595 11.0173C12.1615 10.8263 12.2095 10.6386 12.2993 10.4699L14.3845 10.5861C14.3136 10.7195 14.2759 10.868 14.2745 11.019Z" fill="white"/>
<path d="M14.4909 13.2296L16.0703 12.7666C16.7706 13.0256 17.6057 13.2323 18.5525 13.3803L17.6435 14.0104C16.4385 13.8213 15.368 13.5545 14.4909 13.2296Z" fill="white"/>
<path d="M26.4048 13.9569C25.2397 14.1437 23.9463 14.2574 22.5799 14.2801L22.47 13.5806C23.475 13.5665 24.4777 13.4812 25.4706 13.3252L26.4048 13.9569Z" fill="white"/>
<path d="M31.7261 11.7706C31.4166 12.2024 30.8468 12.6008 30.075 12.9474L28.3903 12.5485C29.0038 12.2674 29.4312 11.9542 29.6598 11.618L31.7261 11.7706Z" fill="white"/>
<path d="M31.6516 10.1666L29.5605 10.3601C29.2785 10.0284 28.8017 9.72315 28.1437 9.45234L29.8682 8.99704C30.6851 9.33835 31.299 9.73479 31.6516 10.1666Z" fill="white"/>
<path d="M25.1004 8.69168C24.0934 8.55405 23.0781 8.48634 22.0618 8.489V7.75085H22.0759C23.4607 7.75085 24.7777 7.84428 25.9744 8.01332L25.1004 8.69168Z" fill="white"/>
<path d="M11.39 8.35747L12.8001 8.36933C14.5338 7.41853 17.6943 6.78247 21.3071 6.78247C25.0996 6.78247 28.3942 7.48398 30.0622 8.51429L31.2224 8.52395V10.0394C31.2224 10.0427 31.2224 10.046 31.2224 10.0495C31.2224 11.8536 26.7821 13.3151 21.306 13.3151C15.8298 13.3151 11.39 11.8536 11.39 10.0489C11.39 10.0454 11.39 10.0421 11.39 10.0388V8.35747Z" fill="url(#paint2_linear_42_3622)"/>
<path d="M21.3059 11.7201C15.8294 11.7201 11.3899 10.2576 11.3899 8.45366C11.3899 6.64967 15.8294 5.18726 21.3059 5.18726C26.7824 5.18726 31.2219 6.64967 31.2219 8.45366C31.2219 10.2576 26.7824 11.7201 21.3059 11.7201Z" fill="#FF922E"/>
<path d="M21.306 10.4609C17.9412 10.4609 15.2135 9.56238 15.2135 8.45407C15.2135 7.34572 17.9412 6.44727 21.306 6.44727C24.6707 6.44727 27.3984 7.34572 27.3984 8.45407C27.3984 9.56238 24.6707 10.4609 21.306 10.4609Z" fill="white"/>
<path d="M21.2997 6.39018H21.5822C21.802 6.39326 22.0185 6.40016 22.2316 6.41083L22.1625 6.56304C21.879 6.5492 21.5888 6.54217 21.2997 6.54217V6.38843V6.39018ZM23.1425 6.48089L23.1645 6.48331H23.1711H23.1755H23.1781H23.182H23.1919H23.1957H23.199H23.2027H23.2038H23.2078H23.2179H23.2205H23.2517H23.2541H23.2649H23.2678H23.2755H23.2781H23.2869H23.29H23.2931H23.297H23.3032H23.3095H23.3133H23.3166H23.3199H23.323H23.3262H23.3309H23.3344H23.3377H23.341H23.3478H23.3546H23.3614H23.3682H23.375C23.593 6.50835 23.805 6.53765 24.0112 6.57116L23.8085 6.70997C23.5494 6.6689 23.2785 6.63398 23.004 6.6063L23.1414 6.45893L23.1425 6.48089ZM24.8215 6.74687C25.0705 6.80288 25.3066 6.86438 25.5282 6.93114L25.5334 6.9329L25.5385 6.93444H25.5411H25.5433H25.5458H25.5477H25.5499L25.2325 7.04733C25.021 6.98298 24.7929 6.92346 24.5559 6.87009L24.8197 6.7427L24.8215 6.74687ZM26.1892 7.16418C26.3705 7.23723 26.5471 7.32168 26.7178 7.41698L26.3138 7.49429C26.1557 7.40599 25.9923 7.32756 25.8245 7.2595L26.1885 7.16374L26.1892 7.16418ZM27.126 7.69459C27.2118 7.76474 27.2901 7.84342 27.3599 7.92938L27.3617 7.9318L27.3634 7.934L27.3652 7.93619L27.367 7.93839L27.3685 7.94058L27.3702 7.94278L27.372 7.94476V7.94586V7.94695V7.94827V7.94981L27.3735 7.95223L27.3764 7.95618L26.9209 7.99088C26.8476 7.88945 26.7612 7.79811 26.664 7.71919L27.0986 7.66253L27.126 7.69459ZM27.5452 8.29244C27.5518 8.32 27.5567 8.34796 27.5597 8.37612C27.5598 8.37693 27.5598 8.37774 27.5597 8.37853V8.38095V8.38315V8.38468V8.386V8.38732V8.39062V8.42158V8.42729V8.42971V8.43081V8.43191V8.43432V8.43542V8.43652V8.43762V8.44926V8.45167V8.45277V8.45387V8.45607V8.45716V8.45826V8.45936V8.46046V8.46156V8.46375V8.46595C27.5596 8.46714 27.5596 8.4683 27.5597 8.46946V8.47166C27.5586 8.4969 27.556 8.52207 27.552 8.54699V8.54809C27.552 8.54809 27.552 8.54963 27.552 8.55029V8.55139V8.55336V8.55842V8.56061C27.5507 8.56764 27.5494 8.57445 27.5479 8.58148L27.0814 8.57071C27.091 8.52626 27.0959 8.48091 27.0959 8.43542C27.0958 8.38499 27.0899 8.33472 27.0783 8.28563L27.5443 8.27377L27.5452 8.29244ZM26.9579 8.87074L27.4142 8.90434C27.3687 8.97089 27.3172 9.03316 27.2603 9.09037L27.2581 9.09257L27.2559 9.09476L27.2537 9.09718V9.09828V9.09938L27.2526 9.10047L27.2515 9.10157V9.10267L27.2504 9.10377L27.2493 9.10487H27.2482V9.10596L27.2463 9.10794L27.2441 9.10992L27.2419 9.11211L27.2397 9.11431L27.2351 9.11892C27.2157 9.13671 27.1957 9.1545 27.1748 9.17207L26.7389 9.11651C26.8344 9.03742 26.9187 8.94581 26.9895 8.84416L26.9579 8.87074ZM26.3358 9.40005L26.7416 9.47649L26.7158 9.4912L26.7123 9.49318L26.7088 9.49494H26.7071H26.7055H26.704H26.7027H26.7011H26.6996H26.6985H26.6974H26.6961H26.6947L26.6925 9.49603L26.6893 9.49779L26.686 9.49955C26.5992 9.54699 26.507 9.59327 26.4092 9.63836L26.405 9.64033L26.4011 9.64209L26.3987 9.64319H26.3976L26.3951 9.64429H26.394H26.3921L26.3885 9.64583H26.3868H26.3855H26.3841H26.3828H26.3815H26.3804H26.3786H26.3773H26.3754H26.3738H26.3721L26.3681 9.64758L26.3639 9.64934L26.3597 9.6511C26.3219 9.66779 26.2837 9.68448 26.2446 9.70073L25.8522 9.63528C26.0182 9.5668 26.1797 9.48793 26.3358 9.39918V9.40005ZM25.267 9.84591L25.5871 9.95815L25.504 9.9834L25.4987 9.98494L25.4934 9.98648H25.4908H25.4882H25.4855H25.4831H25.4807L25.4759 9.9878H25.4734H25.471H25.4686H25.4664H25.464H25.462H25.4596H25.4574H25.455H25.4528H25.4508H25.4486H25.4468H25.4449H25.4431H25.4411H25.4394H25.4374H25.4363H25.4347H25.4334H25.4319H25.4308H25.4288H25.4273H25.4262H25.4242H25.4227H25.4205H25.4191H25.4176H25.4161H25.415H25.4134H25.4121H25.4106H25.4095H25.4079H25.4064H25.4053H25.404H25.4022H25.4009H25.3998H25.3985H25.3967H25.3954H25.3943H25.3923H25.391H25.3899H25.3879H25.3866H25.3844H25.3829H25.3807H25.3785H25.3774H25.3761H25.3736H25.3721H25.3697H25.3681H25.3657H25.3642H25.3613L25.3565 9.98911L25.3514 9.99043H25.3486H25.3468H25.3437H25.3422H25.3391L25.3341 9.99175L25.3292 9.99307H25.3264H25.3246H25.3218H25.32H25.3171L25.3123 9.99439L25.3073 9.9957H25.3042H25.3026H25.2991H25.2974H25.2941L25.2888 9.99724L25.2837 9.99856L25.2785 9.99988L25.2694 10.0023L25.2642 10.0038L25.2589 10.0054L25.2536 10.0067L25.2444 10.0091L25.2389 10.0106L25.2336 10.012L25.2283 10.0133L25.2193 10.0157L25.2141 10.017L25.2088 10.0183L25.2035 10.0199L25.1982 10.0212H25.1945L25.189 10.0225L25.1837 10.0238L25.1784 10.0251H25.1751H25.1734H25.1701H25.1683H25.165L25.1598 10.0265L25.1547 10.0278H25.1516H25.149H25.1461H25.1444H25.1411L25.136 10.0289L25.131 10.0302H25.1279H25.1252H25.1226H25.1211H25.1182H25.1154H25.1127L25.1079 10.0315H25.1052H25.1037H25.1011H25.0997H25.0975H25.0454H25.0441H25.0428H25.0406H25.0382H25.0364H25.0338H25.0318H25.0305H25.0292H25.0268H25.0257H25.0243H25.023H25.021H25.0186H25.0171H25.0153H25.014H25.0127H25.0107H25.0094H25.0081H25.0061H25.0048H25.0015H24.9999H24.9982H24.9971H24.9953H24.994H24.9923H24.9901H24.9881H24.9859H24.9848H24.9832H24.9795H24.9773H24.9755H24.9731H24.9714H24.9701H24.9683H24.9659H24.9641H24.9617H24.9599H24.9575H24.9553H24.9529H24.9503H24.9478H24.9454H24.943H24.9404L24.9731 10.0416L24.9353 10.0315L24.9617 10.0416L24.9503 10.0526L24.9454 10.0636H24.9553L24.9529 10.0746H24.9164L24.6093 9.91422C24.8456 9.86041 24.9626 9.86847 25.1734 9.80346L25.267 9.84591ZM23.8492 10.1692L24.0549 10.3074C24.012 10.3144 23.9688 10.3212 23.9253 10.3278H23.9189H23.9129H23.9072H23.9044H23.9006H23.898H23.887H23.8852H23.8758H23.8732H23.871H23.8681H23.8644H23.8615H23.8591H23.8562H23.8525H23.8496H23.8468H23.8435L23.8373 10.3289H23.8312H23.8248C23.6204 10.3582 23.4105 10.3842 23.1952 10.4069L23.0543 10.2599C23.3282 10.2316 23.5982 10.196 23.8565 10.1543L23.8492 10.1692ZM22.2061 10.3401L22.2786 10.4921H22.2265H22.2199H22.2025H22.1953L22.1733 10.4932C21.9031 10.5055 21.6278 10.5121 21.3474 10.5129L21.3439 10.3592C21.633 10.3592 21.9229 10.3506 22.2061 10.3361V10.3401ZM19.6366 10.2834C19.9118 10.3107 20.1956 10.3311 20.4807 10.3443L20.4148 10.4967L20.3268 10.4925H20.3196H20.3125H20.2974H20.293H20.158H20.1395H20.1327H20.1259H20.1191H20.1121C19.9059 10.4796 19.7034 10.4633 19.5045 10.4435L19.6384 10.2959L19.6366 10.2834ZM18.0779 10.0418C18.317 10.0945 18.57 10.1418 18.8299 10.1822L18.6305 10.3214C18.4773 10.2977 18.3277 10.272 18.1816 10.2443L18.1596 10.2399L18.1537 10.2388H18.1478H18.1421H18.1383H18.1361H18.1326H18.1308H18.1273H18.1218H18.1163H18.1133H18.11H18.1071H18.1056H18.0992H18.097H18.0944H18.0928H18.0895H18.0882H18.086H18.082H18.0798H18.0785H18.077H18.0746H18.0719H18.0704H18.0684H18.0656H18.064H18.0612H18.059H18.057H18.0546H18.0526H18.0502H18.0482H18.0458H18.0436H18.0412H18.0387H18.0363H18.0337H18.0313H18.0286H18.0264H18.0238H18.0216H18.019H18.0165H18.0139L18.0084 10.2377H18.0055H18.0027H17.9996H17.9968H17.9939H17.991H17.988L17.982 10.2364L17.9763 10.2353L17.9704 10.2342L17.9642 10.2329C17.9211 10.224 17.8784 10.2148 17.8361 10.2052L18.0772 10.0414L18.0779 10.0418ZM16.8029 9.65922C16.9847 9.7328 17.1847 9.80243 17.3964 9.86612L17.0816 9.97989C16.8513 9.91092 16.6367 9.83625 16.4396 9.75652L16.8023 9.65878L16.8029 9.65922ZM15.9247 9.17054C16.0449 9.26663 16.1733 9.35202 16.3083 9.42575L15.9061 9.50416C15.8823 9.49098 15.859 9.47781 15.8362 9.46441L15.834 9.46309H15.8329L15.8309 9.46199H15.8296H15.8282H15.8269H15.8254H15.8241H15.8225H15.821H15.8195H15.8179H15.8164H15.8148H15.8133L15.8115 9.46089L15.7911 9.43761L15.7876 9.43564C15.7309 9.40109 15.6772 9.36601 15.6265 9.33043L15.6234 9.32823L15.6205 9.32604L15.6177 9.32384L15.6148 9.32165L15.6133 9.32055H15.6119H15.6106H15.6093L15.608 9.31945H15.6067H15.6053H15.6042H15.6029H15.6016H15.6005H15.5992H15.5981L15.5957 9.31747L15.593 9.3155L15.5904 9.31352C15.5656 9.29485 15.5414 9.27618 15.5183 9.25729L15.9516 9.19931L15.9247 9.17054ZM15.5242 8.6186C15.552 8.72 15.5985 8.81528 15.6614 8.89951L15.2068 8.93531C15.1842 8.90449 15.1634 8.87245 15.1444 8.83933L15.1431 8.83713V8.83581V8.8345V8.8334V8.83186V8.83076V8.82966V8.82747C15.143 8.82683 15.143 8.82615 15.1431 8.82549V8.82329V8.8211L15.142 8.8189C15.1168 8.76944 15.0966 8.71756 15.0817 8.66406V8.66296V8.66164V8.66055V8.65923V8.65813V8.65703L15.5475 8.64407L15.5242 8.6186ZM15.1756 8.01855L15.6328 8.05084C15.5755 8.13634 15.5355 8.23221 15.515 8.33307L15.0485 8.32341C15.0525 8.30144 15.0573 8.28124 15.0633 8.26037V8.25796V8.25554V8.25444V8.25334V8.25225V8.25115V8.24214V8.2305V8.2294V8.22809V8.22677V8.22523V8.22369V8.22216V8.21974C15.0634 8.21895 15.0634 8.21814 15.0633 8.21732V8.21491V8.21249C15.0633 8.21249 15.0633 8.21095 15.0633 8.21008C15.0634 8.20929 15.0634 8.20847 15.0633 8.20766C15.0868 8.14849 15.1163 8.09182 15.1512 8.03854L15.1756 8.01855ZM15.8351 7.44465L16.2426 7.51998C16.1131 7.59464 15.9907 7.68104 15.877 7.77805L15.4394 7.72446L15.4702 7.69833L15.4717 7.69701L15.4735 7.69569L15.4748 7.69459H15.4759H15.477H15.4783L15.4794 7.6935H15.4807H15.4818H15.4831L15.4844 7.6924L15.4871 7.69042L15.4899 7.68822C15.5926 7.6076 15.7007 7.53422 15.8135 7.46859L15.8351 7.44465ZM16.9781 6.96014L17.3008 7.07149C17.0924 7.13738 16.8972 7.2081 16.7207 7.28278L16.3516 7.18834C16.4384 7.15159 16.5288 7.11586 16.6229 7.08115L16.6277 7.0794L16.6321 7.07786L16.6365 7.07632H16.6387H16.6407H16.6429H16.6447H16.6468H16.6484H16.6504H16.6521H16.6539H16.6556H16.6572H16.6592H16.6609H16.662H16.6636H16.6649H16.6669H16.6682H16.6704L16.6745 7.07479L16.6789 7.07325H16.682H16.6836H16.6866L16.6913 7.07171L16.6959 7.06995C16.7817 7.03964 16.8702 7.01037 16.9614 6.9821L16.9781 6.96014ZM18.5021 6.60696L18.7112 6.74489C18.4542 6.78706 18.2045 6.83626 17.9691 6.89073L17.7 6.76488C17.8271 6.7356 17.9575 6.70771 18.0913 6.6812L18.0974 6.67988L18.1036 6.67878L18.1256 6.67439L18.1317 6.67329L18.1381 6.67198H18.1412L18.1539 6.66956L18.1601 6.66846L18.1662 6.66714L18.1882 6.66297H18.1946L18.201 6.66165L18.2073 6.66055L18.2168 6.6588L18.2232 6.65748L18.2295 6.65638H18.2359H18.2423L18.252 6.65462H18.2581L18.2643 6.65353L18.2704 6.65243L18.2768 6.65133H18.2832H18.2863L18.2924 6.65023L18.2983 6.64913H18.3045L18.3109 6.64804H18.317H18.3201L18.3263 6.64694L18.3326 6.64584H18.3388H18.3419H18.3447H18.3478H18.3509H18.3537H18.3566H18.3595L18.3652 6.64474H18.3711H18.3742H18.3768H18.3797H18.3821H18.385H18.3874H18.3902H18.3924H18.3951H18.3977H18.4001H18.4028H18.405H18.4076H18.4096H18.4122H18.4144H18.417H18.4181H18.4201H18.4245H18.4267H18.4311H18.4335H18.4375H18.4399H18.4443H18.4465H18.4491H18.4513H18.4729H18.476H18.4793H18.4823H18.4843H18.488L18.494 6.64364H18.4988L18.5021 6.60696ZM20.2741 6.41786L20.3501 6.56985C20.0663 6.58522 19.7839 6.60784 19.5106 6.63705L19.3664 6.49056C19.4267 6.48397 19.4872 6.47782 19.548 6.47211H19.5544H19.5605H19.5636H19.6159H19.619H19.6227H19.6296H19.6364H19.6434C19.8486 6.45366 20.0584 6.43859 20.273 6.42686L20.2741 6.41786Z" fill="#FF922E"/>
<path d="M21.306 6.13432C20.3893 6.13202 19.4735 6.19292 18.5653 6.31662C17.7269 6.43346 16.9738 6.60061 16.3271 6.81365C15.6804 7.0267 15.1726 7.27488 14.818 7.55096C14.4509 7.83649 14.2647 8.14068 14.2647 8.45366C14.2647 8.76664 14.4509 9.07061 14.818 9.35658C15.1726 9.63266 15.6804 9.88085 16.3271 10.0937C16.9738 10.3065 17.7269 10.4741 18.5653 10.5909C19.4736 10.7144 20.3893 10.7753 21.306 10.773C22.2227 10.7753 23.1385 10.7144 24.0469 10.5909C24.8853 10.4741 25.6384 10.3067 26.2851 10.0937C26.9318 9.88063 27.4393 9.63244 27.7941 9.35658C28.1612 9.07105 28.3474 8.76686 28.3474 8.45366C28.3474 8.14046 28.1612 7.83693 27.7941 7.55096C27.4393 7.27466 26.9318 7.0267 26.2851 6.81365C25.6384 6.60061 24.8853 6.43346 24.0469 6.31662C23.1385 6.19292 22.2227 6.13202 21.306 6.13432ZM21.306 6.09589C25.2594 6.09589 28.4644 7.15145 28.4644 8.45366C28.4644 9.75587 25.2594 10.8117 21.306 10.8117C17.3525 10.8117 14.1478 9.75587 14.1478 8.45366C14.1478 7.15145 17.3519 6.09589 21.306 6.09589Z" fill="#F7FAF6"/>
<path d="M21.306 6.27596C20.4457 6.27387 19.5864 6.33102 18.7341 6.44706C17.9469 6.55687 17.2393 6.71369 16.6326 6.91378C16.0259 7.11387 15.5489 7.34668 15.2159 7.60585C14.8712 7.87424 14.6965 8.15955 14.6965 8.45342C14.6965 8.74729 14.8723 9.03259 15.2159 9.30099C15.5489 9.56037 16.0255 9.79319 16.6326 9.99327C17.2398 10.1934 17.9469 10.3502 18.7341 10.46C19.5864 10.5759 20.4458 10.6331 21.306 10.6311C22.1666 10.6331 23.0264 10.576 23.8791 10.46C24.6663 10.3502 25.3739 10.1931 25.9804 9.99327C26.5869 9.79341 27.0643 9.56037 27.3976 9.30099C27.7422 9.03259 27.917 8.74751 27.917 8.45342C27.917 8.15933 27.7411 7.87424 27.3976 7.60585C27.0645 7.34668 26.5878 7.11365 25.9806 6.91378C25.3735 6.71391 24.6665 6.55665 23.8794 6.44706C23.0266 6.33098 22.1668 6.27381 21.3062 6.27596M21.3062 6.2373C25.0211 6.2373 28.0339 7.22961 28.0339 8.45342C28.0339 9.67722 25.0224 10.6695 21.3062 10.6695C17.5899 10.6695 14.5797 9.67744 14.5797 8.45342C14.5797 7.22939 17.5912 6.2373 21.3062 6.2373Z" fill="#F7FAF6"/>
<path d="M18.0215 9.28851C18.0915 9.27924 18.1626 9.29167 18.2253 9.32409H19.2318L19.3743 9.45477C19.4059 9.48354 19.489 9.50287 19.582 9.50287L19.3872 9.32518H19.5347L19.6765 9.45455C19.7082 9.48332 19.791 9.50265 19.8842 9.50265L19.6899 9.32518H19.8359L19.9774 9.45433C20.0091 9.4831 20.092 9.50243 20.185 9.50243L19.9911 9.32518L21.0763 9.32628H21.8184C21.791 9.29202 21.6971 9.26808 21.5896 9.26808H21.0271L20.1656 8.26743H21.6846C22.0802 8.68297 22.4759 9.15189 22.8716 9.57842C22.9375 9.65046 22.7764 9.73898 22.5482 9.73963C21.1473 9.74491 19.7464 9.73458 18.3455 9.73963C18.2657 9.73963 18.1952 9.7225 18.1743 9.69703L17.8995 9.36384C17.8733 9.33221 17.9259 9.29817 18.0215 9.28851Z" fill="#FF922E"/>
<path d="M19.2203 7.16815H20.7766C20.9222 7.16815 21.0404 7.20706 21.0404 7.25608H20.2673C20.3036 7.28817 20.395 7.30993 20.4988 7.31081L20.7955 7.31389C20.9289 7.45708 21.0624 7.60025 21.196 7.74342H19.7147L19.2951 7.25564H19.2542C19.1865 7.25564 19.1265 7.23915 19.119 7.21695C19.1115 7.19475 19.1559 7.17277 19.2203 7.16815Z" fill="url(#paint3_linear_42_3622)"/>
<path d="M17.9772 7.9071C17.9772 7.9027 17.9792 7.89853 17.9803 7.89414C18.0625 7.59258 18.8411 7.36328 19.7608 7.36328H22.4213C22.6424 7.36328 22.8401 7.40897 22.9155 7.47727L23.1249 7.64419H23.3569C23.5171 7.64419 23.6683 7.66857 23.7662 7.71008H22.4488L22.1048 7.71184C21.9335 7.71184 21.8115 7.76411 21.8375 7.81727L22.1483 8.09862H22.2947L21.9984 7.82803H22.0914L22.3877 8.09862H22.5747L22.2782 7.82803C22.7677 7.82495 23.1645 7.82166 23.6541 7.81858C23.7721 7.81858 23.8813 7.83923 23.9361 7.87349C23.9562 7.88507 23.9735 7.90088 23.9869 7.91983C24.0029 7.94509 23.9389 7.96881 23.8611 7.96552H23.8585C23.7736 7.96135 23.7371 7.93675 23.7345 7.93499H22.882C22.882 7.95695 22.9374 7.97584 23.006 7.97584H23.4514C24.0686 8.58072 24.501 9.01559 24.6806 9.15023C24.8602 9.28486 24.707 9.34043 24.5764 9.36152C24.5163 9.37078 24.4556 9.37526 24.3948 9.37491H23.2702L22.5229 8.65495H22.7427C22.8625 8.65495 22.9596 8.6231 22.9596 8.58357H21.7043C21.1721 8.83022 20.6401 9.0795 20.1079 9.32637C19.5964 9.32637 19.0849 9.32374 18.5736 9.32374L20.3491 8.53679L19.7624 8.54206C18.8831 8.54206 18.1265 8.33231 17.9946 8.04612C17.9738 8.00292 17.9677 7.9541 17.9772 7.9071ZM22.4936 8.19526H22.6657L22.5818 8.11882H22.4101L22.4936 8.19526ZM22.2549 8.19526H22.3857L22.3024 8.11926H22.1718L22.2549 8.19526ZM21.4855 8.19526C21.6529 8.19526 21.8573 8.19526 22.0988 8.19526L22.0151 8.1197H21.4031L21.4855 8.19526ZM21.9924 8.09884L21.7023 7.83659C21.4532 7.83659 21.247 7.83813 21.0945 7.83835L21.3802 8.09884H21.9924ZM21.1919 8.19592H21.331L21.2473 8.1197H21.1077L21.1919 8.19592ZM21.2248 8.09884L20.9391 7.83835H20.7997L21.0855 8.09862L21.2248 8.09884ZM20.4174 8.14979C20.6222 8.18162 20.8292 8.19697 21.0365 8.1957L20.9527 8.11926C20.7962 8.1219 20.6621 8.12102 20.557 8.11926C20.361 8.11575 20.2713 8.10916 20.1849 8.09357C20.1498 8.08753 20.115 8.07968 20.0807 8.07006C20.1911 8.10494 20.304 8.13152 20.4183 8.14957L20.4174 8.14979ZM19.9835 8.00176C20.0189 8.04569 20.1574 8.06765 20.2315 8.07841C20.3311 8.09335 20.4179 8.09532 20.588 8.09884C20.7221 8.10147 20.8384 8.10059 20.9303 8.09884L20.6461 7.83923C20.6076 7.83703 20.3009 7.82166 20.1075 7.88953C20.0822 7.89831 19.9413 7.94773 19.9844 8.00154L19.9835 8.00176Z" fill="#FF922E"/>
<path d="M21.0954 7.83846C21.248 7.83846 21.4542 7.83846 21.7032 7.8367L21.9934 8.09916H21.3808L21.0954 7.83846ZM21.8932 8.07608L21.6544 7.86022L21.1952 7.86154L21.43 8.07608H21.8932Z" fill="white"/>
<path d="M22.3848 8.19544L22.2549 8.19522L22.1709 8.11938H22.3015L22.3848 8.19544Z" fill="white"/>
<path d="M22.6658 8.19542H22.4937L22.4101 8.11914H22.5818L22.6658 8.19542ZM22.5326 8.142H22.5106L22.5438 8.17212H22.5658L22.5326 8.142Z" fill="white"/>
<path d="M17.9074 7.90616C17.9074 7.90155 17.9094 7.89715 17.9105 7.89276C17.9518 7.74143 18.1646 7.60153 18.5095 7.49918C18.8544 7.39683 19.2973 7.34082 19.7603 7.34082H22.4214C22.6706 7.34082 22.8953 7.39265 22.981 7.46953L23.085 7.55255L23.1718 7.62173H23.3569C23.5378 7.62173 23.7115 7.64985 23.8218 7.69707L23.9087 7.73419H22.4489L22.1062 7.73594C22.0538 7.73493 22.0017 7.74319 21.9523 7.76032C21.92 7.77306 21.903 7.78909 21.9041 7.80425H22.1407L22.1574 7.81962L22.437 8.07616H22.475L22.3664 7.97732L22.2125 7.83653L22.1794 7.80623H22.2772L22.9681 7.80161L23.653 7.797H23.6607C23.8032 7.797 23.9328 7.8227 23.999 7.86421C24.0218 7.87745 24.0414 7.89544 24.0566 7.91692C24.0683 7.93515 24.0544 7.95382 24.0188 7.96832C23.9733 7.98413 23.9254 7.99157 23.8772 7.99028C23.8691 7.99028 23.861 7.99028 23.8531 7.99028H23.8489C23.797 7.98918 23.7457 7.97892 23.6974 7.95997H23.5068L23.5174 7.97029C23.6371 8.08742 23.7497 8.19799 23.8553 8.30194C24.2881 8.72759 24.6011 9.03508 24.7444 9.1427C24.9532 9.2993 24.7479 9.36102 24.607 9.3843C24.5367 9.39497 24.4656 9.4002 24.3945 9.39989H23.2195L23.2035 9.3843L22.4561 8.66434L22.4245 8.63381H22.7432C22.7876 8.63585 22.8319 8.6272 22.8722 8.60855H21.741C21.4819 8.72869 21.2187 8.85147 20.964 8.97007C20.7136 9.08691 20.4551 9.20727 20.2001 9.32566H20.1139C20.6444 9.07967 21.1746 8.83126 21.7048 8.58549H22.9601C22.9601 8.62502 22.863 8.65687 22.7432 8.65687H22.5234L23.2708 9.37683H24.3949C24.4557 9.37718 24.5164 9.3727 24.5765 9.36343C24.707 9.34147 24.8622 9.2881 24.6807 9.15215C24.4991 9.01619 24.0687 8.5811 23.4514 7.97798H23.0068C22.9382 7.97798 22.8828 7.95953 22.8828 7.93713H23.7352C23.7379 7.93888 23.7744 7.96348 23.8592 7.96766H23.8766C23.9474 7.96766 24.0025 7.94569 23.9865 7.92175C23.9731 7.9028 23.9558 7.88699 23.9357 7.87541C23.8818 7.84159 23.7755 7.8205 23.6596 7.8205H23.6537C23.1641 7.82358 22.7674 7.82687 22.2778 7.82995L22.5748 8.09922H22.3877L22.0914 7.82863H21.9984L22.2948 8.09922H22.1484L21.8375 7.81831C21.8116 7.76515 21.9336 7.71398 22.1048 7.71288L22.4489 7.71112H23.7662C23.6684 7.66917 23.5172 7.64523 23.3569 7.64523H23.125L22.9155 7.47831C22.8401 7.41 22.6425 7.36432 22.4214 7.36432H19.7603C18.8412 7.36432 18.0626 7.59362 17.9797 7.89518C17.9786 7.89957 17.9775 7.90374 17.9766 7.90814C17.967 7.95534 17.973 8.00442 17.994 8.04782C18.1259 8.33335 18.883 8.54376 19.7618 8.54376L20.3491 8.53739L18.5741 9.32368H18.4862L18.517 9.3105L19.5501 8.85322L20.2067 8.56243L19.7644 8.56638H19.7625C19.3197 8.56638 18.8902 8.51455 18.5535 8.42032C18.2167 8.3261 17.992 8.19432 17.9259 8.05068C17.904 8.00585 17.8975 7.95505 17.9074 7.90616ZM21.9059 7.81259L21.9373 7.84093L21.9323 7.83632L21.9057 7.81216L21.9059 7.81259Z" fill="white"/>
<path d="M22.0999 8.1953H21.9071H21.4866L21.403 8.12012H22.0159L22.0999 8.1953ZM21.9669 8.14276H21.503L21.5358 8.17243H21.9996L21.9669 8.14276Z" fill="white"/>
<path d="M20.0816 8.07019C20.1159 8.07982 20.1507 8.08767 20.1858 8.09371C20.2737 8.10932 20.3616 8.11569 20.5579 8.11943C20.6153 8.11943 20.6815 8.12097 20.7558 8.12097C20.8169 8.12097 20.8833 8.12097 20.9536 8.11943L21.0374 8.19593C20.8301 8.1972 20.6231 8.18184 20.4183 8.14998C20.3043 8.13181 20.1917 8.10514 20.0816 8.07019ZM20.9349 8.17131L20.9044 8.14317C20.8542 8.14317 20.8039 8.14427 20.7542 8.14427C20.6883 8.14427 20.6197 8.14427 20.5533 8.14251H20.5335C20.6667 8.15963 20.8007 8.16924 20.9349 8.17131Z" fill="white"/>
<path d="M20.5889 8.09884C20.4188 8.09532 20.3319 8.09335 20.2323 8.0784C20.1583 8.06697 20.0198 8.04586 19.9844 8.00168C19.9404 7.94783 20.0822 7.89837 20.1084 7.88935C20.2363 7.84539 20.4137 7.83594 20.5302 7.83594C20.59 7.83594 20.6337 7.83814 20.6469 7.83902L20.9312 8.09884C20.881 8.09884 20.8237 8.10038 20.7601 8.10038C20.7072 8.10038 20.6491 8.09994 20.5889 8.09884ZM20.5955 7.86012C20.5777 7.86012 20.5555 7.85902 20.5295 7.85902C20.4196 7.85902 20.2675 7.86715 20.1587 7.90518C20.1165 7.91991 20.0215 7.95838 20.0514 7.99575C20.0785 8.0296 20.1928 8.04696 20.2611 8.05729C20.3471 8.07048 20.4203 8.07224 20.5924 8.07576C20.6478 8.07576 20.7039 8.0773 20.7595 8.0773H20.8322L20.5955 7.86012Z" fill="white"/>
<path d="M20.8012 7.83871H20.9406L21.2263 8.09942H21.0867L20.8012 7.83871Z" fill="white"/>
<path d="M21.1929 8.19639L21.1087 8.12012H21.2483L21.332 8.19639H21.1929Z" fill="white"/>
<path d="M24.3306 6.12876C23.3235 5.99113 22.3082 5.92341 21.2918 5.92609V5.1875H21.3059C22.6907 5.1875 24.0077 5.28092 25.2043 5.44996L24.3306 6.12876Z" fill="#F7FAF6"/>
<path d="M16.4904 5.59766L17.522 6.21022C16.6042 6.3778 15.8094 6.60139 15.1598 6.87417L13.4905 6.44303C14.3063 6.09886 15.3264 5.81114 16.4904 5.59766Z" fill="white"/>
<path d="M30.9565 9.29573V10.8029C30.6448 11.2375 30.0694 11.6388 29.2881 11.9871V10.3838L30.9132 9.2373C30.9286 9.25707 30.9427 9.2764 30.9565 9.29573Z" fill="#EDE8E8"/>
<path d="M25.635 12.9883C24.47 13.1747 23.177 13.2883 21.8115 13.3109V11.7159L25.635 11.3924V12.9883Z" fill="#EDE8E8"/>
<path d="M16.874 12.9711C15.66 12.7708 14.5879 12.491 13.7214 12.1523V10.666L16.874 11.4468V12.9711Z" fill="#EDE8E8"/>
<path d="M11.3901 10.0489C11.3901 10.0453 11.3901 10.042 11.3901 10.0388V8.35745L11.5186 8.35855L11.6541 9.20502V10.7993C11.4817 10.5588 11.3901 10.3074 11.3901 10.0489Z" fill="#EDE8E8"/>
<path d="M13.505 8.45546C13.505 8.65511 13.5745 8.85366 13.7114 9.04562L11.6537 9.20507C11.4814 8.96347 11.3899 8.71221 11.3899 8.4537C11.3918 8.26273 11.4396 8.07503 11.5293 7.90637L13.6149 8.02278C13.5441 8.15612 13.5064 8.3045 13.505 8.45546Z" fill="white"/>
<path d="M13.7214 10.6663L15.3008 10.2031C16.0011 10.4622 16.8362 10.6689 17.783 10.8169L16.874 11.4471C15.669 11.258 14.5982 10.9911 13.7214 10.6663Z" fill="white"/>
<path d="M25.635 11.3929C24.47 11.5798 23.1766 11.6934 21.8102 11.716L21.7003 11.0166C22.7048 11.0027 23.7072 10.9176 24.6997 10.7618L25.635 11.3929Z" fill="white"/>
<path d="M30.9565 9.20724C30.647 9.63882 30.0773 10.0375 29.3055 10.384L27.6208 9.98519C28.2343 9.70406 28.6614 9.39086 28.8903 9.0546L30.9565 9.20724Z" fill="white"/>
<path d="M30.8818 7.60324L28.7907 7.7963C28.5085 7.46443 28.0319 7.15936 27.374 6.88855L29.0985 6.43369C29.9153 6.775 30.5292 7.17144 30.8818 7.60324Z" fill="white"/>
<path d="M24.3306 6.12876C23.3235 5.99113 22.3082 5.92341 21.2918 5.92609V5.1875H21.3059C22.6907 5.1875 24.0077 5.28092 25.2043 5.44996L24.3306 6.12876Z" fill="white"/>
<path d="M3.99545 15.2946C3.97698 15.2709 3.95852 15.2469 3.94049 15.2228L2.90866 13.8725L3.17619 13.7069C2.25603 10.6603 4.36057 6.9463 8.19398 5.10774C11.2976 3.61928 14.6525 3.78313 16.7746 5.29136L16.9214 5.20065L17.7035 6.13168C17.7381 6.17152 17.7721 6.21178 17.8053 6.25248L17.8187 6.26851C18.0587 6.56464 18.2635 6.88762 18.4289 7.23095C19.9457 10.3873 17.8216 14.554 13.6857 16.5375C9.98198 18.3139 5.92084 17.7367 4.02359 15.3295L3.99545 15.2946Z" fill="url(#paint4_linear_42_3622)"/>
<path d="M2.7598 13.5855C1.2435 10.4291 3.36716 6.26244 7.50304 4.27895C11.639 2.29545 16.221 3.24625 17.7373 6.40259C19.2535 9.55896 17.1298 13.7256 12.9939 15.7091C8.858 17.6926 4.27589 16.7418 2.7598 13.5855Z" fill="#FF922E"/>
<path d="M5.64769 12.2005C4.7161 10.2613 6.02094 7.70139 8.56182 6.48275C11.1029 5.26413 13.918 5.84829 14.8496 7.78749C15.7812 9.72671 14.4764 12.2867 11.9354 13.5053C9.39427 14.7239 6.57928 14.1398 5.64769 12.2005Z" fill="white"/>
<path d="M14.9779 7.72177V7.72375V7.72551V7.72748V7.72902V7.73078V7.73253V7.73451V7.73605V7.73803V7.73978V7.74154V7.7433V7.74505V7.74681V7.74835V7.75011V7.75164V7.7534V7.75472V7.75669V7.75823V7.76021V7.76153V7.76328V7.7646V7.76636V7.7679V7.76943V7.77075V7.77185V7.77361V7.77492V7.77668V7.77778V7.77932V7.78085V7.78195V7.78371V7.78503V7.78635V7.78744V7.78876V7.79008V7.79118V7.7925V7.79403V7.79579V7.79733V7.79842V7.80018V7.80128V7.80348V7.80479L14.979 7.80721V7.80853L14.9806 7.81248L14.9823 7.81644L14.9839 7.82039V7.82171L14.985 7.82434V7.82566L14.9863 7.8283V7.82961L14.9881 7.83401L14.9898 7.8384C14.9898 7.83972 14.9898 7.84103 14.9916 7.84257C15.0443 7.97172 15.0884 8.10422 15.1235 8.23923L14.7551 8.36706C14.7083 8.18792 14.6445 8.01369 14.5645 7.84674L14.9779 7.72177ZM15.28 8.88364C15.28 8.88869 15.28 8.89396 15.28 8.89901V8.90363C15.28 8.90472 15.28 8.9056 15.28 8.9067V8.90824V8.91109V8.91263V8.91724V8.92164V8.92779V8.98138V8.98621V8.99829V9.00048V9.00268V9.00488V9.00707V9.00949V9.01169V9.0141V9.0163V9.01871V9.02355V9.02838C15.28 9.03013 15.28 9.03167 15.28 9.03321V9.04199C15.2799 9.0436 15.2799 9.04522 15.28 9.04683C15.2827 9.20088 15.2753 9.35495 15.258 9.50806L14.8843 9.54386C14.9066 9.35207 14.9117 9.15869 14.8995 8.966L15.2749 8.88342L15.28 8.88364ZM15.1351 10.1437C15.0746 10.3522 14.9988 10.5561 14.9085 10.7536L14.9065 10.7584L14.9043 10.7631L14.9032 10.7652V10.7672V10.7694V10.7712V10.7732L14.5561 10.7145C14.6441 10.5254 14.7176 10.3299 14.7759 10.1296L15.1406 10.1413L15.1351 10.1437ZM14.5585 11.3901C14.4264 11.594 14.281 11.7889 14.1233 11.9737L13.8338 11.8261C13.9798 11.6551 14.1144 11.4746 14.2367 11.286L14.5585 11.3901ZM13.6019 12.5133C13.4524 12.6499 13.2944 12.781 13.128 12.9065L13.1231 12.91L13.1185 12.9135L13.1139 12.917L13.1093 12.9205L13.1047 12.9238L13.1003 12.9271L13.0959 12.9304L13.0937 12.9322L13.0917 12.9337L13.0897 12.9352L13.088 12.9366L13.086 12.9379L13.0844 12.939L13.0825 12.9405L13.0809 12.9416C13.0804 12.9422 13.0798 12.9427 13.0792 12.9431L13.0778 12.9442L13.0761 12.9456H13.0748L13.073 12.9469H13.0719L13.0699 12.9482H13.0686L13.0671 12.9493L13.0655 12.9504H13.0642L13.0622 12.9517H13.0609L13.0587 12.9532H13.0574L13.055 12.9548V12.9559L13.0528 12.9576H13.0515L13.0488 12.9596C13.0484 12.9601 13.0479 12.9605 13.0473 12.9607L13.0442 12.9627L13.0394 12.9662L13.031 12.9724L12.8255 12.7479C13.0086 12.617 13.1841 12.4758 13.3513 12.3251L13.6017 12.5133H13.6019ZM12.3463 13.4127C12.2847 13.447 12.2222 13.4804 12.1588 13.5131L12.1535 13.5159L12.148 13.5186L12.1425 13.5212L12.1392 13.523H12.1375L12.1346 13.5243H12.1328L12.13 13.5256H12.1284L12.1258 13.5269H12.1243L12.1218 13.5282H12.1203H12.119H12.117H12.1157H12.1137H12.1124L12.1102 13.5293H12.1091H12.1078H12.106H12.1045H12.1034H12.1018H12.1003H12.0988H12.0977H12.0961H12.0946H12.0931H12.0913H12.09H12.0884L12.0865 13.5304H12.0851H12.0836L12.0814 13.5315H12.0796L12.0774 13.5326H12.0759L12.0737 13.5337H12.0719H12.0698H12.068H12.0658L12.0636 13.5348H12.0612L12.059 13.5359L12.0566 13.537L12.0544 13.5381L12.0522 13.5392L12.0497 13.5403L12.0475 13.5414L12.0451 13.5425L12.0429 13.5436L12.0403 13.5449L12.0381 13.546L12.0357 13.5474L12.0337 13.5485L12.0313 13.5498L12.0291 13.5509L12.0264 13.552L12.024 13.5531L12.0216 13.5544L12.0192 13.5557L12.0166 13.557L12.0141 13.5583L12.0117 13.5594L12.0097 13.5605L12.0073 13.5616H12.0053H12.0034L12.0009 13.5627H11.999L11.9968 13.5638H11.9948H11.9928H11.9904L11.9884 13.5649L11.9862 13.566L11.9838 13.5673H11.9818L11.9796 13.5684H11.9772H11.975L11.9726 13.5695H11.9702L11.9651 13.572L11.9627 13.5733L11.9576 13.5757L11.95 13.5794L11.9447 13.5818C11.886 13.6089 11.8278 13.635 11.7699 13.66H11.7673L11.762 13.6622H11.7598L11.7574 13.6633H11.7554H11.7534H11.7515H11.7499H11.7482H11.7464H11.7451L11.74 13.6655L11.691 13.6859L11.5866 13.4055C11.6917 13.3615 11.7974 13.3145 11.9007 13.2649C12.015 13.21 12.1291 13.1511 12.2392 13.0892L12.3463 13.4127ZM10.857 13.7108L10.9065 14.0106C10.7498 14.0555 10.5933 14.0942 10.4369 14.1265L10.4312 14.1279H10.4255L10.4198 14.1292H10.4167H10.4141H10.4112H10.4086H10.4059H10.4035H10.4009H10.3985H10.3958H10.3936H10.391H10.389H10.3866H10.3844H10.3822H10.38H10.3776H10.3736H10.3719H10.3618H10.3604H10.356H10.3545H10.3503H10.3486H10.3451H10.3426H10.3391H10.3367H10.3352H10.3321L10.3268 14.1303L10.3215 14.1314L10.3163 14.1325H10.3108L10.2993 14.1344C10.253 14.1429 10.2068 14.151 10.1606 14.1586L10.1639 13.8654C10.3981 13.8275 10.6297 13.7758 10.8577 13.7103L10.857 13.7108ZM9.47216 13.9344L9.40929 14.2522C9.39588 14.2522 9.38225 14.2522 9.36884 14.2535H9.3029C9.16991 14.256 9.03802 14.2537 8.90722 14.2467H8.90173H8.89623H8.88129H8.87667H8.83513H8.82963H8.82413C8.77555 14.2433 8.72697 14.2394 8.67862 14.2348L8.796 13.9185C9.02021 13.9396 9.24574 13.946 9.47084 13.9379L9.47216 13.9344ZM8.11566 13.8959L7.98443 14.1162C7.95739 14.1098 7.93057 14.103 7.90353 14.0962L7.89848 14.0949L7.89364 14.0936H7.891H7.88859H7.88617H7.88375H7.88133L7.87672 14.0923H7.87452H7.8721H7.8699H7.86792H7.8655H7.86375H7.86155H7.85935H7.85715H7.85517H7.85342H7.85122H7.84946H7.84748H7.84616H7.84418H7.84264H7.84067H7.83913H7.83781H7.83649H7.83473H7.83341H7.83165H7.82946H7.8277H7.8266H7.82528H7.82374H7.82242H7.8211H7.81978H7.81847H7.81693H7.81517H7.81407H7.81231H7.81011H7.80835H7.80725H7.80527H7.80242H7.80022H7.7989H7.7978H7.79582H7.79385H7.79275H7.79143H7.78923H7.78637H7.78417H7.78286H7.78065H7.77934H7.7767L7.7723 14.091L7.76769 14.0896H7.76483H7.76329H7.76065H7.75911H7.75647L7.75208 14.0883L7.74768 14.087H7.74504H7.74373H7.74109H7.73955H7.73691L7.73252 14.0857L7.7279 14.0841H7.72504H7.7235H7.72042H7.71889H7.71581L7.71119 14.0828L7.70658 14.0815L7.70196 14.08L7.69383 14.0776L7.68899 14.0762L7.68437 14.0749L7.67976 14.0734L7.67163 14.0707L7.66679 14.0692L7.66217 14.0677L7.65756 14.0664L7.64964 14.0639L7.64481 14.0624L7.64019 14.0609L7.63557 14.0591L7.63096 14.0576L7.62788 14.0565L7.62327 14.0549L7.61865 14.0532L7.61403 14.0516H7.61118H7.60964H7.60678H7.60524L7.60216 14.0505L7.59755 14.049L7.59315 14.0475H7.59051H7.58919H7.58678H7.58524H7.58238L7.57798 14.0459L7.57359 14.0444H7.57095H7.56963H7.56743H7.56611H7.56369H7.56238H7.55996L7.55578 14.0429H7.55358H7.55226H7.55007H7.54875H7.54699H7.54567H7.54391H7.54259H7.54105H7.53929H7.5382H7.53688H7.5349H7.5338H7.53204H7.53094H7.52962H7.52808H7.52633H7.52501H7.52325H7.52193H7.52061H7.51907H7.51775H7.51578H7.51424H7.51226H7.51094H7.50918H7.50764H7.50566H7.50412H7.5028H7.50083H7.49929H7.49731H7.49577H7.49379H7.49225H7.49006H7.48808H7.48588H7.48368H7.4817H7.4795H7.47753H7.47533H7.47335H7.47115L7.46654 14.0411H7.46434H7.46214H7.45994H7.45774H7.45554L7.45093 14.0393L7.44631 14.0374L7.4417 14.0354L7.42719 14.0295L7.64371 13.7369C7.83759 13.8155 7.91211 13.8474 8.11566 13.8959ZM7.01964 13.3475L6.75982 13.6183C6.7319 13.6012 6.7042 13.5837 6.67717 13.5658L6.67321 13.5632L6.66947 13.5608L6.66596 13.5583L6.6642 13.557L6.66266 13.5559L6.66134 13.5548L6.6598 13.5537H6.65848H6.65694H6.65563L6.65386 13.5526H6.65233H6.65079H6.64947L6.64771 13.5515H6.64617H6.64419L6.64244 13.5504L6.64068 13.5491L6.63672 13.5465L6.63298 13.5438L6.62903 13.5412C6.50527 13.4567 6.38723 13.3642 6.27578 13.2642L6.57341 13.0226C6.71278 13.1431 6.86181 13.2515 7.01942 13.3468L7.01964 13.3475ZM6.1729 12.5884L5.84317 12.7975L5.84186 12.7958L5.84054 12.794V12.7929V12.7914L5.83922 12.7896V12.7885L5.8379 12.7868V12.7857L5.83526 12.7824L5.83262 12.7789L5.82999 12.7753L5.82735 12.7718V12.7707L5.82559 12.7683V12.767L5.82273 12.7633L5.81438 12.7518C5.71019 12.6086 5.61852 12.4566 5.54027 12.2976L5.89198 12.1263C5.97397 12.2924 6.07157 12.4502 6.18368 12.5977L6.1729 12.5884ZM5.5917 11.0444C5.60555 11.2314 5.63721 11.4166 5.68601 11.5977L5.31847 11.7277C5.31341 11.709 5.30836 11.6903 5.30374 11.6717V11.6673L5.30242 11.6629V11.66V11.6587C5.30242 11.6574 5.30242 11.6559 5.30242 11.6545V11.6517V11.6504V11.6477V11.6464V11.644V11.6418V11.6396V11.6337V11.6319V11.6291V11.6273V11.6245V11.6227V11.6181V11.6133V11.6086V11.6073V11.6056V11.6027V11.601V11.5981V11.5963V11.5898V11.5882V11.5862V11.5847V11.5827V11.581V11.579V11.5772V11.5753V11.5678V11.5656V11.5636V11.5614V11.5572V11.5531V11.5487V11.5443V11.5399V11.5353C5.27516 11.4019 5.2567 11.2669 5.24659 11.1312L5.5917 11.0444ZM5.71524 9.88034C5.66117 10.0728 5.62314 10.2694 5.60159 10.4681L5.2279 10.5063C5.23999 10.3919 5.25758 10.2774 5.28066 10.1626C5.28066 10.1566 5.28286 10.1507 5.28418 10.145C5.28418 10.1435 5.28418 10.1419 5.28418 10.1404C5.28418 10.1388 5.28418 10.1373 5.28418 10.1358C5.28418 10.1342 5.28418 10.1327 5.28418 10.1312V10.1281V10.1265V10.1237V10.1224V10.1195V10.1151V10.1107V10.1081V10.1057V10.1035V10.1022V10.1004V10.0982V10.0971V10.0934V10.0916V10.0886V10.0868V10.0835V10.0817V10.0743V10.0727V10.0703V10.0679V10.0662V10.0631V10.0611V10.0582V10.0563V10.0545V10.0523V10.0506V10.0486V10.0468V10.0448V10.0429V10.0409V10.0389V10.0372V10.035V10.0332V10.0312V10.0295V10.0273V10.0229C5.28418 10.0221 5.28418 10.0213 5.28418 10.0205V10.0183V10.0161V10.0139V10.0117V10.0093V10.0068C5.28418 10.0053 5.28418 10.0038 5.28418 10.0022C5.28418 10.0007 5.28418 9.99916 5.28418 9.99762L5.2855 9.99279C5.2855 9.99104 5.2855 9.9895 5.2855 9.98774C5.29429 9.95304 5.30352 9.91834 5.31319 9.88363L5.67853 9.89308L5.71524 9.88034ZM6.23929 8.72462C6.12278 8.90751 6.01925 9.09833 5.92956 9.29567L5.58137 9.23945C5.67831 9.02688 5.7902 8.82139 5.91594 8.62447L6.23929 8.72638V8.72462ZM7.11548 7.68026C6.94578 7.83745 6.78598 8.00499 6.63694 8.18191L6.34568 8.03629C6.36942 8.00818 6.39338 7.98022 6.41756 7.95239L6.41976 7.94953V7.94822L6.42174 7.94602L6.42284 7.94492L6.42438 7.94338V7.94229L6.42569 7.94097L6.42701 7.93943V7.93833L6.42833 7.93679V7.9357L6.42987 7.93394L6.43119 7.9324L6.43251 7.93065L6.43405 7.92867L6.43559 7.92713L6.43734 7.92537L6.43888 7.92384L6.44064 7.92186L6.44218 7.9201L6.44394 7.91834L6.44548 7.91659L6.44724 7.91461L6.45097 7.91044L6.45493 7.90627C6.51824 7.83583 6.58374 7.76636 6.65123 7.69783L6.65541 7.69388L6.65936 7.68993L6.66354 7.68597L6.66749 7.68202L6.66925 7.68004L6.67123 7.67807L6.67321 7.67609L6.67497 7.67433L6.67695 7.67235L6.67871 7.6706L6.68046 7.66884L6.68222 7.6673L6.68398 7.66555L6.68552 7.66379L6.68706 7.66203L6.6886 7.66027L6.68992 7.65896L6.69146 7.6572L6.69277 7.65588L6.69431 7.65412L6.69563 7.65281L6.69717 7.65127L6.69871 7.64995V7.64885L6.70003 7.64754L6.70157 7.646L6.70311 7.64446V7.64336L6.70464 7.64183L6.70816 7.63831L6.7119 7.6348C6.713 7.63344 6.71432 7.63221 6.71564 7.63106C6.75147 7.59621 6.78796 7.56173 6.82554 7.52762L7.11548 7.68026ZM8.27041 6.84236C8.06092 6.9601 7.85847 7.08975 7.66393 7.23067L7.4562 7.00796C7.52259 6.95964 7.59029 6.91242 7.6591 6.8663L7.66393 6.863L7.66701 6.86081H7.66855L7.67163 6.85883H7.67295L7.67536 6.85729H7.6769L7.67954 6.85553H7.68086H7.68218L7.68394 6.85422H7.68503L7.68679 6.8529H7.68789L7.68965 6.8518H7.69119L7.69317 6.85048H7.69471L7.69669 6.84916H7.69822L7.70042 6.84785L7.70196 6.84675L7.70416 6.84521L7.70614 6.84411L7.72394 6.82369L7.72614 6.82215L7.73076 6.81907L7.73559 6.816L7.74043 6.81293L7.74526 6.80985L7.75032 6.80656C7.86001 6.73555 7.97278 6.66731 8.0884 6.60186L8.09104 6.60032L8.09368 6.59878L8.0961 6.59724L8.09851 6.59571L8.10071 6.59439L8.10313 6.59307L8.10511 6.59175L8.1073 6.59044L8.26624 6.84433L8.27041 6.84236ZM9.54844 5.98249L9.60097 6.28141C9.37016 6.34901 9.14331 6.42968 8.92151 6.52301L8.81424 6.24363C8.86392 6.22167 8.91338 6.20256 8.96306 6.18279L8.96877 6.1806L8.97427 6.1784L8.97691 6.1773H8.97955H8.98196H8.9846H8.9868H8.98922H8.99142H8.99383H8.99581L8.99845 6.17621H9.00065H9.00306H9.00504H9.00702H9.00878H9.01054H9.01186H9.01362H9.01516H9.01648H9.01823H9.01933H9.02087H9.02219H9.02395H9.02505H9.02659H9.0279H9.02966H9.03098H9.03296H9.03428H9.0356H9.03714H9.03889H9.04044H9.04241H9.04373H9.04527H9.04681L9.04923 6.17511H9.05077L9.05362 6.17401H9.05516L9.05846 6.17269H9.06022L9.06351 6.17137H9.06527L9.06901 6.17006H9.07077L9.07429 6.16874H9.07605L9.07978 6.16742H9.08176L9.08726 6.16522L9.09275 6.16325L9.09847 6.16127L9.10418 6.15907L9.13078 6.12086L9.1365 6.11888C9.27344 6.0688 9.41083 6.02371 9.54844 5.98359V5.98249ZM11.0467 5.73145L10.9867 6.04926C10.7546 6.05927 10.5234 6.08354 10.2943 6.12196L10.2982 5.81007L10.367 5.79909H10.3706H10.3725H10.3758H10.3776H10.3807H10.3837H10.3864H10.4328H10.4354H10.438H10.4409H10.4466H10.4523C10.6516 5.77098 10.849 5.75282 11.0445 5.74462L11.0467 5.73145ZM12.474 5.8573L12.3078 6.16478C12.0954 6.11594 11.88 6.08189 11.6629 6.06287L11.7774 5.74748C11.8855 5.75692 11.9926 5.76944 12.0983 5.7857H12.1036H12.1089H12.1137H12.1161H12.1643H12.1667H12.1713H12.1759H12.1792H12.181H12.1843H12.1893H12.1944C12.288 5.80166 12.3802 5.82024 12.4709 5.84148L12.474 5.8573ZM13.705 6.3473L13.4471 6.61921C13.2746 6.51561 13.0939 6.42628 12.9068 6.35213L13.1211 6.0587C13.2237 6.09955 13.3237 6.14407 13.4212 6.19224L13.4256 6.19443L13.4302 6.19663L13.4463 6.20476L13.4507 6.20695L13.4553 6.20915L13.4575 6.21025L13.4665 6.21486L13.4709 6.21706L13.4753 6.21947L13.4909 6.2276L13.4953 6.2298L13.4997 6.23199L13.5043 6.23441L13.5109 6.23792L13.5153 6.24034L13.5197 6.24253L13.5241 6.24473L13.5285 6.24715L13.5351 6.25066L13.5395 6.25308L13.5436 6.25549L13.548 6.25791L13.5524 6.26033L13.5568 6.26274L13.559 6.26406L13.5632 6.26626L13.5674 6.26845L13.5716 6.27087L13.5759 6.27328L13.5803 6.2757H13.5825L13.5869 6.27812L13.5911 6.28053L13.5953 6.28295L13.5973 6.28427L13.5995 6.28536H13.6014L13.6034 6.28646L13.6056 6.28756L13.6076 6.28866H13.6098L13.6138 6.29085L13.6177 6.29327L13.6197 6.29437H13.6217H13.6234H13.6252L13.6269 6.29547H13.6285H13.6302H13.6318H13.6335L13.6353 6.29656H13.6368H13.6388H13.6401H13.6419H13.6432L13.645 6.29766H13.6465H13.6483H13.6498H13.6511H13.6527H13.654H13.6555H13.6566H13.6582H13.6593H13.6608H13.6621H13.6632H13.665H13.6661L13.6681 6.29876L13.6705 6.30008L13.6744 6.30249L13.6775 6.30425L13.705 6.3473ZM14.6295 7.15995L14.3022 7.3708C14.1866 7.22228 14.0572 7.08499 13.9158 6.96074L14.2117 6.71673C14.2431 6.7444 14.2739 6.77229 14.304 6.80106L14.3073 6.80414L14.3104 6.807L14.3119 6.80831V6.80941V6.81051L14.3132 6.81183L14.3145 6.81315V6.81424L14.3159 6.81556L14.3172 6.81688L14.3187 6.81842L14.32 6.81995L14.3216 6.82149L14.3231 6.82303L14.3249 6.82457L14.3282 6.82786L14.3315 6.83115L14.3348 6.83445C14.4343 6.93265 14.5273 7.03726 14.6131 7.14765L14.6295 7.15995Z" fill="#FF922E"/>
<path d="M15.5655 7.44381C15.3018 6.89604 14.9061 6.43195 14.3888 6.06472C13.8888 5.70979 13.297 5.45985 12.6303 5.32126C11.9636 5.18267 11.2536 5.1629 10.5222 5.26218C8.97098 5.48306 7.52546 6.17636 6.38262 7.24767C5.84758 7.75569 5.4196 8.32125 5.11009 8.9281C4.80059 9.53495 4.62649 10.153 4.59022 10.7647C4.55329 11.3979 4.66804 11.9968 4.93116 12.5437C5.19428 13.0906 5.59062 13.5556 6.10785 13.9228C6.60793 14.2777 7.19991 14.5277 7.8664 14.6663C8.53289 14.8049 9.24312 14.8246 9.97445 14.7253C11.5258 14.5045 12.9713 13.8112 14.1141 12.7399C14.648 12.2327 15.0773 11.6674 15.3866 11.0603C15.6959 10.4532 15.8702 9.83541 15.9065 9.22372C15.9434 8.59052 15.8287 7.99179 15.5655 7.44469M15.6535 7.4023C16.7484 9.6799 15.2156 12.6878 12.23 14.1196C9.24444 15.5514 5.93661 14.8664 4.84214 12.587C3.74766 10.3076 5.28045 7.30061 8.26603 5.86881C11.2516 4.43701 14.5601 5.12293 15.6539 7.40142L15.6535 7.4023Z" fill="#F7FAF6"/>
<path d="M15.2404 7.60051C14.9933 7.08612 14.6216 6.65059 14.1358 6.30466C13.6663 5.97148 13.1106 5.73669 12.4841 5.60666C11.8576 5.47664 11.1916 5.45819 10.5057 5.55132C9.04877 5.75929 7.69139 6.41088 6.61846 7.41733C6.11617 7.89438 5.71412 8.42501 5.42374 8.99497C5.13336 9.56492 4.96916 10.145 4.93575 10.7191C4.90102 11.3136 5.00873 11.8759 5.2558 12.3903C5.50288 12.9047 5.87459 13.3402 6.36061 13.685C6.82992 14.0182 7.38562 14.253 8.01233 14.383C8.63903 14.5131 9.30486 14.5315 9.99069 14.4384C11.4479 14.2312 12.8056 13.5799 13.8788 12.5735C14.3811 12.0964 14.783 11.5658 15.0733 10.9958C15.3637 10.4259 15.5281 9.84605 15.5615 9.2717C15.5963 8.67715 15.4886 8.11489 15.2413 7.60051M15.3292 7.55812C16.358 9.69955 14.9173 12.5265 12.1113 13.8722C9.3053 15.2179 6.19663 14.573 5.16788 12.4318C4.13913 10.2906 5.57982 7.46345 8.3858 6.11775C11.1918 4.77205 14.3 5.4169 15.3296 7.55812H15.3292Z" fill="#F7FAF6"/>
<path d="M7.42465 9.02031C7.45674 9.04996 7.46575 9.09828 7.39937 9.17691L7.67612 9.75784L7.41783 9.98253C7.36046 10.0324 7.33958 10.1013 7.3653 10.1549L7.71877 9.84745L7.75921 9.93245L7.50159 10.1567C7.44421 10.2066 7.42311 10.2755 7.44905 10.3291L7.80076 10.0216L7.8412 10.1068L7.58424 10.3304C7.52686 10.3803 7.50576 10.4492 7.53148 10.5028L7.88319 10.1954L8.18148 10.822L8.38657 11.2492C8.45758 11.1958 8.48615 11.1154 8.45648 11.0535L8.30084 10.7293L10.3594 9.13232L10.7793 10.0087C9.93607 10.6937 8.97019 11.4376 8.10191 12.1345C7.95551 12.252 7.70778 12.256 7.64271 12.1255C7.24286 11.3238 6.87884 10.505 6.47899 9.70337C6.45701 9.65769 6.47701 9.59773 6.52955 9.55775L7.21824 9.03217C7.28418 8.98209 7.37607 8.97506 7.42465 9.02031Z" fill="#FF922E"/>
<path d="M12.6177 7.37882L12.6199 7.37707L12.628 7.3942L13.0184 8.20684L13.0508 8.27274C13.091 8.35664 13.0345 8.46733 12.9246 8.52004L12.8419 8.34785L12.71 8.07441C12.6465 8.13041 12.6221 8.20619 12.6485 8.2679C12.6749 8.32962 12.6988 8.38409 12.7239 8.44229L11.8505 9.14512L11.4388 8.2936L12.4403 7.51566L12.4291 7.49194C12.4104 7.45306 12.4311 7.40057 12.4799 7.3718C12.5287 7.34302 12.5894 7.34742 12.6177 7.37882Z" fill="#FF922E"/>
<path d="M10.5789 7.47543L10.6095 7.46313C11.3237 7.1787 12.0647 7.37527 12.3192 7.90525L12.4291 8.13257L13.0567 9.43896C13.1178 9.56635 13.0681 9.73019 12.9321 9.84902L12.6076 10.153L12.6718 10.2867C12.7158 10.3792 12.7019 10.4932 12.6331 10.5956L12.2682 9.83628C12.2352 9.77026 12.2021 9.70487 12.1689 9.64014C12.119 9.54263 11.9682 9.52857 11.8534 9.60193L11.2955 10.09L11.336 10.1743L11.8743 9.70582L11.9 9.75941L11.3612 10.2283L11.4129 10.3362L11.9512 9.86769C12.0939 10.1464 12.2108 10.3715 12.3535 10.6505C12.3878 10.7175 12.3693 10.8042 12.3056 10.8734C12.2776 10.9033 12.2464 10.93 12.2126 10.9531C12.1592 10.9902 12.0871 10.9795 12.0732 10.9312C12.0733 10.9306 12.0733 10.9301 12.0732 10.9296C12.0594 10.8762 12.1055 10.8281 12.1093 10.8246L12.0792 10.762L12.0192 10.6371L11.8732 10.3333C11.8215 10.3581 11.7949 10.4102 11.8138 10.4497L11.9369 10.7058C10.7225 11.7262 9.84428 12.4539 9.58489 12.7056C9.3255 12.9573 9.15625 12.9298 9.0714 12.8778C9.03623 12.8562 9.00831 12.825 8.99072 12.7877L8.67924 12.1391L10.1228 10.9171L10.1837 11.044C10.2169 11.113 10.3171 11.1339 10.4077 11.0904L10.2661 10.7956L10.0601 10.3669C9.34705 10.3316 8.62824 10.299 7.91515 10.2637C7.77337 9.96894 7.63774 9.67067 7.49618 9.37658L9.7902 9.5356L9.61567 9.20329C9.37233 8.69659 9.6438 8.02978 10.2635 7.63905C10.3638 7.57578 10.4694 7.52105 10.5789 7.47543ZM11.1687 10.3952L11.2157 10.4947L11.3681 10.363L11.3206 10.2641L11.1687 10.3952ZM11.1027 10.2573L11.1383 10.3322L11.2896 10.2004L11.2535 10.1251L11.1027 10.2573ZM10.8895 9.81453C10.9366 9.91051 10.9937 10.0282 11.0601 10.1677L11.2104 10.0359L11.0407 9.68275L10.8895 9.81453ZM11.2511 10.0006L11.7719 9.54504C11.7002 9.40272 11.6422 9.28434 11.5995 9.1967L11.0814 9.64739L11.2511 10.0006ZM10.8066 9.64607L10.8286 9.69L10.846 9.72492L10.9979 9.59314L10.9594 9.51276L10.8066 9.64607ZM11.0385 9.55822L11.5573 9.10819L11.5186 9.02802L11.0007 9.47849L11.0385 9.55822ZM10.6981 9.14904C10.6761 9.31047 10.7106 9.43457 10.764 9.55602L10.9161 9.42424C10.8743 9.3508 10.8375 9.27456 10.8062 9.19604C10.7596 9.07942 10.7504 9.02034 10.7622 8.95445C10.7674 8.92427 10.7762 8.89477 10.7882 8.86659C10.743 8.95519 10.7129 9.05062 10.6989 9.14904H10.6981ZM10.9179 8.73613C10.8262 8.80509 10.8163 8.9081 10.811 8.96323C10.8038 9.03725 10.8233 9.08952 10.8629 9.19121C10.8893 9.25947 10.921 9.32556 10.9577 9.38888L11.4742 8.93951C11.4683 8.91513 11.4186 8.72163 11.2104 8.68451C11.1819 8.67902 11.0298 8.65201 10.9181 8.73613H10.9179Z" fill="#FF922E"/>
<path d="M11.6004 9.19604C11.643 9.28397 11.701 9.40221 11.7727 9.54466L11.252 10.0006L11.0823 9.64709L11.6004 9.19604ZM11.2772 9.91727L11.7057 9.54226C11.6617 9.45433 11.6177 9.3664 11.5753 9.27848L11.1489 9.64975L11.2772 9.91727Z" fill="white"/>
<path d="M11.139 10.3321L11.1034 10.2569L11.2542 10.125L11.2903 10.2004L11.139 10.3321Z" fill="white"/>
<path d="M11.2156 10.4949L11.1685 10.3953L11.3204 10.2635L11.3679 10.3624L11.2156 10.4949ZM11.3013 10.3593L11.2952 10.3463L11.2349 10.3984L11.2413 10.4116L11.3013 10.3593Z" fill="white"/>
<path d="M10.5632 7.43347L10.5946 7.42051C10.9531 7.27797 11.3323 7.24678 11.6629 7.33266C11.9935 7.41854 12.2439 7.61269 12.3721 7.87955L12.482 8.10687L13.1093 9.41348C13.1783 9.55712 13.1219 9.74293 12.9691 9.87756L12.8077 10.0287L12.6732 10.1547L12.7246 10.2615C12.7745 10.3656 12.7581 10.4967 12.6807 10.6129L12.6193 10.7038L12.58 10.6217L12.2151 9.86241C12.183 9.79784 12.1492 9.73195 12.1162 9.66693C12.1063 9.64925 12.0921 9.63434 12.0749 9.62356C12.0578 9.61277 12.0382 9.60647 12.0179 9.60522C11.9777 9.601 11.9371 9.60864 11.9012 9.62718L11.9271 9.68143L11.9529 9.73502L11.9667 9.76335L11.9362 9.78971L11.4284 10.2316L11.4389 10.2536L11.6357 10.0823L11.9155 9.83869L11.9757 9.7862L12.0043 9.84198C12.076 9.98189 12.141 10.1084 12.2063 10.2349C12.2716 10.3614 12.3349 10.4849 12.4059 10.6237C12.4059 10.6252 12.4074 10.6265 12.4081 10.6278C12.4474 10.71 12.4241 10.813 12.3472 10.8969C12.3158 10.9311 12.2806 10.9617 12.2424 10.988C12.2051 11.0145 12.1597 11.0268 12.1142 11.0227C12.0955 11.0219 12.0773 11.0162 12.0614 11.0062C12.0456 10.9963 12.0325 10.9823 12.0236 10.9659C12.0214 10.9612 12.0195 10.9563 12.0181 10.9514V10.9487C12.0139 10.9278 12.0142 10.9063 12.0189 10.8855C12.0236 10.8647 12.0327 10.8451 12.0456 10.8281L12.0263 10.7877L11.9933 10.7188L11.9713 10.7363C11.7357 10.9342 11.5135 11.1205 11.3048 11.2955C10.4489 12.0131 9.83029 12.5316 9.62322 12.7326C9.32185 13.0251 9.12335 12.9742 9.03191 12.9186C8.9908 12.8935 8.95783 12.8569 8.93717 12.8134L8.62503 12.1653L8.61118 12.1363L8.64261 12.1099L10.087 10.8872L10.1484 10.8352L10.1756 10.8918L10.2365 11.019C10.2458 11.0351 10.2596 11.0482 10.2763 11.0565C10.2929 11.0648 10.3117 11.0679 10.3302 11.0656L10.213 10.8213L10.0171 10.4135C9.6696 10.3961 9.31569 10.3794 8.973 10.3632C8.63602 10.3471 8.28826 10.3307 7.94623 10.3138L7.92249 10.2643C8.63316 10.2995 9.34933 10.332 10.06 10.3671L10.266 10.7959L10.4075 11.0906C10.317 11.1345 10.2167 11.1126 10.1835 11.0443L10.1226 10.9173L8.6791 12.1391L8.99058 12.7873C9.00817 12.8245 9.03609 12.8558 9.07126 12.8773C9.15611 12.9294 9.32295 12.9593 9.58475 12.7051C9.84656 12.451 10.7219 11.7258 11.9368 10.7065L11.8137 10.4502C11.7948 10.4106 11.8214 10.3586 11.8731 10.3337L12.019 10.6375L12.079 10.7625L12.1091 10.8251C12.1054 10.8286 12.0592 10.8767 12.0731 10.9301C12.0732 10.9306 12.0732 10.9311 12.0731 10.9316C12.074 10.9347 12.0751 10.9377 12.0766 10.9406C12.0962 10.9814 12.1623 10.9887 12.2125 10.954C12.2461 10.9307 12.2772 10.9038 12.305 10.8738C12.3677 10.8055 12.3866 10.7201 12.3547 10.6542C12.3547 10.6531 12.3536 10.652 12.3529 10.6507C12.2103 10.372 12.0933 10.1468 11.9507 9.86812L11.4123 10.3366L11.3607 10.2288L11.8988 9.76028L11.8731 9.70669L11.3347 10.1752L11.2943 10.0908L11.8522 9.6028C11.9669 9.52922 12.1177 9.5435 12.1676 9.64102C12.201 9.70559 12.2342 9.77098 12.267 9.83715L12.6319 10.5964C12.7007 10.4941 12.715 10.3801 12.6706 10.2876L12.6064 10.1539L12.9313 9.84901C13.0673 9.73019 13.117 9.56634 13.0559 9.43895L12.4279 8.13257L12.318 7.90525C12.0634 7.37549 11.3224 7.1787 10.6082 7.46312L10.5777 7.47542C10.4682 7.52104 10.3628 7.57577 10.2625 7.63905C9.64279 8.02978 9.37131 8.69659 9.61465 9.20329L9.79006 9.53559L7.49582 9.37724L7.47164 9.32672L7.51187 9.32958L8.84616 9.42182L9.69466 9.48025L9.56277 9.22964C9.44033 8.97465 9.44033 8.67001 9.56277 8.37197C9.68521 8.07393 9.92525 7.80092 10.2361 7.60325C10.3402 7.53762 10.4496 7.48083 10.5632 7.43347ZM11.8847 9.63531L11.8282 9.68451L11.8372 9.6766L11.8856 9.63465L11.8847 9.63531Z" fill="white"/>
<path d="M11.0608 10.1678C11.0424 10.1289 11.0246 10.0918 11.0076 10.0563C10.9637 9.96442 10.9245 9.88384 10.8902 9.81451L11.0415 9.68262L11.2112 10.0361L11.0608 10.1678ZM11.1446 10.033L11.0162 9.76549L10.9571 9.81715C10.9909 9.88617 11.0257 9.95805 11.0606 10.031L11.087 10.0842L11.1446 10.033Z" fill="white"/>
<path d="M10.7881 8.86621C10.7767 8.89384 10.7683 8.92266 10.7631 8.95216C10.7519 9.0192 10.7611 9.0779 10.807 9.19396C10.8207 9.22825 10.8374 9.26716 10.8576 9.3098C10.8747 9.34498 10.8941 9.38276 10.9165 9.42233L10.7644 9.55422C10.7108 9.432 10.6765 9.30846 10.6984 9.1469C10.7127 9.04906 10.743 8.9542 10.7881 8.86621ZM10.7934 9.46981L10.849 9.42125C10.8339 9.39312 10.8191 9.36452 10.8051 9.33572C10.7866 9.29725 10.7692 9.25749 10.7534 9.21792L10.7488 9.20627C10.7451 9.29655 10.7603 9.38663 10.7934 9.47071V9.46981Z" fill="white"/>
<path d="M10.8631 9.19163C10.8235 9.08985 10.8039 9.03776 10.8112 8.96346C10.8164 8.90828 10.8263 8.80519 10.918 8.73616C11.0297 8.65197 11.1818 8.67901 11.2099 8.68407C11.2618 8.69295 11.3107 8.71442 11.3524 8.74663C11.3941 8.77881 11.4272 8.82073 11.4489 8.86872C11.4598 8.89129 11.4683 8.91494 11.4744 8.93928L10.9578 9.38903C10.9417 9.36111 10.9242 9.3288 10.9066 9.29209C10.8918 9.26241 10.8771 9.22812 10.8631 9.19163ZM11.4126 8.9329C11.4082 8.91971 11.403 8.90679 11.397 8.89421C11.3783 8.85205 11.3495 8.81512 11.3132 8.78664C11.2769 8.75817 11.2342 8.73902 11.1888 8.73089C11.1433 8.72276 11.029 8.71023 10.9514 8.7687C10.8815 8.82145 10.8734 8.90652 10.8685 8.9573C10.8624 9.02127 10.8782 9.06567 10.9182 9.16855C10.931 9.20174 10.9453 9.23449 10.9606 9.26681C10.9675 9.28066 10.9743 9.2945 10.9815 9.30835L11.4126 8.9329Z" fill="white"/>
<path d="M11.5184 9.02734L11.5571 9.10824L11.0392 9.5593L11.0005 9.47885L11.5184 9.02734Z" fill="white"/>
<path d="M10.8073 9.64569L10.9612 9.5127L10.999 9.59315L10.8471 9.72504L10.8298 9.69009L10.8073 9.64569Z" fill="white"/>
<path d="M16.4179 9.18091C16.4597 8.4794 16.3328 7.81522 16.0407 7.20684L17.7333 6.39551L17.7373 6.40342C18.1206 7.20113 18.271 8.06341 18.2154 8.93866L16.4179 9.18091Z" fill="#F7FAF6"/>
<path d="M15.4614 4.07811L14.3428 5.34606C13.7053 5.00145 12.972 4.78906 12.1666 4.71483L12.6933 3.2793C13.7068 3.37154 14.6503 3.64257 15.4614 4.07811Z" fill="white"/>
<path d="M8.08409 5.50027C7.63039 5.71782 7.19691 5.97505 6.78848 6.26899L5.85316 5.25867C6.75221 4.61216 7.74469 4.10638 8.79631 3.75879L9.10669 5.08846C8.7574 5.20387 8.4158 5.34141 8.08409 5.50027Z" fill="white"/>
<path d="M3.22203 8.1084L4.72119 8.50923C4.3209 9.198 4.07866 9.90633 4.00107 10.6149L2.30473 10.784C2.4043 9.88151 2.71996 8.9709 3.22203 8.1084Z" fill="white"/>
<path d="M4.02305 15.3302L3.9958 15.2944C3.97733 15.2707 3.95887 15.2468 3.94084 15.2226L2.90901 13.8723L4.70801 15.7214L4.66404 16.0032C4.43038 15.7987 4.21583 15.5735 4.02305 15.3302Z" fill="#EDE8E8"/>
<path d="M11.4636 17.3199C10.2946 17.59 9.13948 17.641 8.07446 17.4887L8.03731 16.7272L11.1924 16.3848L11.4636 17.3199Z" fill="#EDE8E8"/>
<path d="M17.7166 13.1111C17.1215 14.0116 16.3203 14.8462 15.3476 15.5504L14.8492 14.5785L17.0371 12.2646L17.7166 13.1111Z" fill="#EDE8E8"/>
<path d="M17.7367 6.40332L18.1392 6.713C18.2462 6.87977 18.343 7.05287 18.4291 7.23134C18.7909 7.98469 18.9452 8.79558 18.9147 9.62053L18.2154 8.93856L17.7367 6.40332Z" fill="#EDE8E8"/>
<path d="M4.70778 15.7216C3.95732 15.2551 3.33875 14.6348 2.90878 13.8725L4.48093 13.041C4.81263 13.6267 5.28832 14.1143 5.89502 14.4905L4.70778 15.7216Z" fill="white"/>
<path d="M11.1924 16.3849C10.117 16.6814 9.04586 16.7912 8.03733 16.7273L8.48532 15.3179C9.29997 15.3618 10.1359 15.2643 10.9693 15.0264L11.1924 16.3849Z" fill="white"/>
<path d="M14.8493 14.5779L13.8278 13.5851C14.5092 13.058 15.0783 12.4472 15.5164 11.7705L17.0371 12.264C16.4805 13.1103 15.7415 13.9001 14.8493 14.5779Z" fill="white"/>
<path d="M16.4179 9.18091C16.4597 8.4794 16.3328 7.81522 16.0407 7.20684L17.7333 6.39551L17.7373 6.40342C18.1206 7.20113 18.271 8.06341 18.2154 8.93866L16.4179 9.18091Z" fill="white"/>
<path d="M24.9357 10.0087H25.1335V10.0746H24.9357V10.0087Z" fill="#FF922E"/>
<defs>
<linearGradient id="paint0_linear_42_3622" x1="27.9668" y1="10.5022" x2="19.6158" y2="13.2579" gradientUnits="userSpaceOnUse">
<stop stop-color="#D86C1A"/>
<stop offset="1" stop-color="#E87E25"/>
</linearGradient>
<linearGradient id="paint1_linear_42_3622" x1="20.8627" y1="9.79547" x2="22.1634" y2="14.9256" gradientUnits="userSpaceOnUse">
<stop stop-color="#FF922E"/>
<stop offset="1" stop-color="#FFC239"/>
</linearGradient>
<linearGradient id="paint2_linear_42_3622" x1="27.1973" y1="7.93885" x2="18.846" y2="10.6946" gradientUnits="userSpaceOnUse">
<stop stop-color="#D86C1A"/>
<stop offset="1" stop-color="#E87E25"/>
</linearGradient>
<linearGradient id="paint3_linear_42_3622" x1="20.0932" y1="7.23212" x2="21.3937" y2="12.3622" gradientUnits="userSpaceOnUse">
<stop stop-color="#FF922E"/>
<stop offset="1" stop-color="#FFC239"/>
</linearGradient>
<linearGradient id="paint4_linear_42_3622" x1="18.9178" y1="10.8226" x2="2.90867" y2="10.8226" gradientUnits="userSpaceOnUse">
<stop stop-color="#D86C1A"/>
<stop offset="1" stop-color="#E87E25"/>
</linearGradient>
</defs>
</svg>
