<svg width="369" height="421" viewBox="0 0 369 421" fill="none" xmlns="http://www.w3.org/2000/svg">
<path fill-rule="evenodd" clip-rule="evenodd" d="M55.2448 60.4829L181.334 199.338L124.893 11.3759C125.739 11.0451 126.587 10.721 127.438 10.4037L168.101 0.844638C172.499 0.386418 176.94 0.102819 181.421 0L188.876 192.692L264.175 19.9701C274.954 25.7479 285.163 32.6722 294.681 40.6045L208.631 192.692L349.745 113.593C358.801 133.416 365.163 155.083 368.281 177.967L208.631 208.2L367.366 248.995C364.976 263.653 361.25 277.778 356.335 291.201L208.631 219.277L306.421 369.601C293.584 382.229 279.204 392.885 263.646 401.156L200.832 228.139L175.806 420.62C168.692 420.215 161.685 419.353 154.805 418.061L148.186 416.45L189.133 228.139L63.34 368.9C46.1803 351.847 31.8149 331.254 21.1262 308.125L181.334 219.277H0.160977C0.0540113 216.34 0 213.388 0 210.422C0 199.357 0.75158 188.491 2.1999 177.886L181.334 208.2L27.0594 100.836C34.9887 86.0923 44.4698 72.5436 55.2448 60.4829Z" fill="url(#paint0_radial_37_2780)" fill-opacity="0.5"/>
<defs>
<radialGradient id="paint0_radial_37_2780" cx="0" cy="0" r="1" gradientUnits="userSpaceOnUse" gradientTransform="translate(184.14 210.31) rotate(90) scale(210.31 184.14)">
<stop offset="0.53125" stop-color="#F9F9F9"/>
<stop offset="1" stop-color="white" stop-opacity="0"/>
</radialGradient>
</defs>
</svg>
