<svg width="20" height="20" viewBox="0 0 20 20" fill="none" xmlns="http://www.w3.org/2000/svg">
<path fill-rule="evenodd" clip-rule="evenodd" d="M18.31 7.94997C19.06 8.39997 20 8.99997 20 9.99997C20 11 19.06 11.6 18.31 11.97C18.0771 12.1015 17.8533 12.2485 17.64 12.41C17.7149 12.6808 17.8119 12.945 17.93 13.2C17.9385 13.2207 17.9471 13.2415 17.9558 13.2624C18.2816 14.0506 18.6745 15.0012 18.09 15.8C17.49 16.62 16.42 16.53 15.55 16.45C15.2737 16.4305 14.9963 16.4305 14.72 16.45C14.6556 16.6155 14.5744 16.9416 14.5151 17.1796C14.5099 17.2005 14.5048 17.2206 14.5 17.24C14.4967 17.2548 14.4933 17.2698 14.49 17.2848C14.3021 18.1268 14.0725 19.1554 13.09 19.46C12.9382 19.51 12.7798 19.5369 12.62 19.54C11.8805 19.4396 11.1985 19.0863 10.69 18.54C10.4735 18.3434 10.2429 18.1629 10 18C9.75715 18.1629 9.52653 18.3434 9.31 18.54C8.66 19.15 7.88 19.85 6.91 19.54C5.94 19.23 5.69 18.17 5.5 17.32C5.49517 17.3006 5.49014 17.2805 5.48494 17.2596C5.42563 17.0216 5.34436 16.6955 5.28 16.53C5.00368 16.5105 4.72632 16.5105 4.45 16.53C3.58 16.61 2.5 16.69 1.91 15.88C1.32722 15.0799 1.72987 14.1042 2.05785 13.3094L2.07 13.28C2.18814 13.025 2.28513 12.7608 2.36 12.49C2.14672 12.3285 1.92289 12.1815 1.69 12.05C0.94 11.6 0 11 0 9.99997C0 8.99997 0.94 8.39997 1.69 7.97997C1.92289 7.8484 2.14672 7.70141 2.36 7.53997C2.28513 7.26914 2.18814 7.00492 2.07 6.74997C2.06146 6.72927 2.05286 6.70845 2.0442 6.68752C1.71844 5.89937 1.32552 4.94876 1.91 4.14997C2.51 3.32997 3.58 3.41997 4.45 3.49997C4.72632 3.51942 5.00368 3.51942 5.28 3.49997C5.34436 3.33447 5.42563 3.00834 5.48494 2.77033C5.49014 2.74948 5.49517 2.7293 5.5 2.70997C5.69 1.85997 5.97 0.819972 6.91 0.509972C7.8482 0.200565 8.6569 0.897296 9.30627 1.45675L9.31 1.45997C9.52653 1.65655 9.75715 1.83703 10 1.99997C10.2446 1.82101 10.4752 1.62378 10.69 1.40997C10.7051 1.39699 10.7202 1.38392 10.7354 1.3708C11.3763 0.818048 12.1425 0.157161 13.09 0.459972C14.06 0.769972 14.31 1.82997 14.5 2.67997C14.5048 2.69931 14.5099 2.71948 14.5151 2.74034C14.5744 2.97835 14.6556 3.30447 14.72 3.46997C14.9963 3.48942 15.2737 3.48942 15.55 3.46997C16.42 3.38997 17.5 3.30997 18.09 4.11997C18.6728 4.92006 18.2701 5.89577 17.9422 6.69052L17.93 6.71997C17.8119 6.97492 17.7149 7.23914 17.64 7.50997C17.8533 7.67141 18.0771 7.8184 18.31 7.94997ZM9.78 13.12L13.78 8.11997C14.0675 7.68742 13.976 7.10676 13.5694 6.78357C13.1629 6.46038 12.5765 6.50227 12.22 6.87997L8.92 11L7.71 9.78997C7.31788 9.39785 6.68212 9.39785 6.29 9.78997C5.89788 10.1821 5.89788 10.8179 6.29 11.21L8.29 13.21C8.47872 13.3972 8.7342 13.5015 9 13.5H9.06C9.34303 13.4812 9.60476 13.343 9.78 13.12Z" fill="white"/>
</svg>
