<svg width="20" height="20" viewBox="0 0 20 20" fill="none" xmlns="http://www.w3.org/2000/svg">
<path fill-rule="evenodd" clip-rule="evenodd" d="M10 0C4.47715 0 0 4.47715 0 10C0 15.5228 4.47715 20 10 20C15.5228 20 20 15.5228 20 10C20 7.34784 18.9464 4.8043 17.0711 2.92893C15.1957 1.05357 12.6522 0 10 0ZM10.71 15.71C10.6128 15.7983 10.5012 15.8694 10.38 15.92C10.138 16.027 9.86204 16.027 9.62 15.92C9.49881 15.8694 9.3872 15.7983 9.29 15.71C9.10281 15.5213 8.99846 15.2658 9 15C8.99846 14.7342 9.10281 14.4787 9.29 14.29C9.5264 14.0559 9.86376 13.9547 10.19 14.02C10.2562 14.0293 10.3205 14.0496 10.38 14.08C10.4437 14.1019 10.5043 14.1322 10.56 14.17C10.6124 14.2069 10.6625 14.247 10.71 14.29C10.8927 14.4816 10.9963 14.7352 11 15C11.0015 15.2658 10.8972 15.5213 10.71 15.71ZM10 12C10.5523 12 11 11.5523 11 11V5C11 4.44772 10.5523 4 10 4C9.44771 4 9 4.44772 9 5V11C9 11.5523 9.44771 12 10 12Z" fill="white"/>
</svg>
