<svg width="20" height="20" viewBox="0 0 20 20" fill="none" xmlns="http://www.w3.org/2000/svg">
<path d="M19.39 9.60002C19.9502 9.02736 20.1398 8.18783 19.88 7.43002C19.6361 6.66964 18.9802 6.11469 18.19 6.00002L13.9 5.34002C13.8595 5.32827 13.8264 5.29888 13.81 5.26002L11.93 1.26002C11.5931 0.494703 10.8362 0.0005005 9.99999 1.80663e-05C9.17375 -0.00339843 8.42229 0.478005 8.07999 1.23002L6.19999 5.23002C6.17925 5.26944 6.14301 5.29844 6.09999 5.31002L1.81999 6.00002C1.02895 6.11786 0.37156 6.67085 0.119989 7.43002C-0.130106 8.19004 0.0625284 9.02607 0.619989 9.60002L3.77999 12.85C3.79839 12.8914 3.79839 12.9386 3.77999 12.98L3.03999 17.52C2.89957 18.327 3.23666 19.1428 3.90582 19.6152C4.57499 20.0877 5.45647 20.1324 6.16999 19.73L9.89999 17.66C9.9376 17.6404 9.98238 17.6404 10.02 17.66L13.75 19.73C14.4642 20.1236 15.3404 20.0749 16.0066 19.6045C16.6727 19.1342 17.0119 18.3248 16.88 17.52L16.19 13C16.1686 12.9629 16.1686 12.9171 16.19 12.88L19.39 9.60002Z" fill="white"/>
</svg>
