<svg width="20" height="20" viewBox="0 0 20 20" fill="none" xmlns="http://www.w3.org/2000/svg">
<path fill-rule="evenodd" clip-rule="evenodd" d="M17 0H3C1.34315 0 0 1.34315 0 3V5C0 5.55228 0.447715 6 1 6H2V17C2 18.6569 3.34315 20 5 20H15C16.6569 20 18 18.6569 18 17V6H19C19.5523 6 20 5.55228 20 5V3C20 1.34315 18.6569 0 17 0ZM8 15C8 15.5523 7.55228 16 7 16C6.44772 16 6 15.5523 6 15V9C6 8.44771 6.44772 8 7 8C7.55228 8 8 8.44771 8 9V15ZM13 16C13.5523 16 14 15.5523 14 15V9C14 8.44771 13.5523 8 13 8C12.4477 8 12 8.44771 12 9V15C12 15.5523 12.4477 16 13 16Z" fill="white"/>
</svg>
