<svg width="26" height="28" viewBox="0 0 26 28" fill="none" xmlns="http://www.w3.org/2000/svg">
<path fill-rule="evenodd" clip-rule="evenodd" d="M22.7599 9.15999L25.6133 22.4933C25.8669 23.674 25.5735 24.906 24.815 25.8457C24.0566 26.7853 22.9142 27.3321 21.7066 27.3333H4.29326C3.08568 27.3321 1.9433 26.7853 1.18483 25.8457C0.426361 24.906 0.133001 23.674 0.386594 22.4933L3.23993 9.15999C3.63659 7.31323 5.27105 5.99565 7.15993 5.99999H7.66659C7.66659 3.05447 10.0544 0.666656 12.9999 0.666656C15.9454 0.666656 18.3333 3.05447 18.3333 5.99999H18.8399C20.7288 5.99565 22.3633 7.31323 22.7599 9.15999ZM12.9999 3.33332C11.5272 3.33332 10.3333 4.52723 10.3333 5.99999H15.6666C15.6666 4.52723 14.4727 3.33332 12.9999 3.33332Z" fill="#140430"/>
</svg>
