<svg width="358" height="359" viewBox="0 0 358 359" fill="none" xmlns="http://www.w3.org/2000/svg">
<path d="M358 179C358 277.858 277.858 358.017 179 358.017C80.142 358.017 0 277.858 0 179C0 80.142 75.5364 4.67466 170.427 0.189747C173.273 0.0689987 176.137 0 179 0C181.863 0 184.727 0.0517491 187.573 0.189747C282.446 4.67466 358 83.0055 358 179Z" fill="#F6D303"/>
<g filter="url(#filter0_ii_23_2539)">
<path d="M179 355.24C276.334 355.24 355.24 276.335 355.24 179C355.24 81.6653 276.334 2.75995 179 2.75995C81.6651 2.75995 2.75977 81.6653 2.75977 179C2.75977 276.335 81.6651 355.24 179 355.24Z" fill="url(#paint0_linear_23_2539)"/>
</g>
<path d="M179 330.952C262.921 330.952 330.953 262.921 330.953 179C330.953 95.0789 262.921 27.0475 179 27.0475C95.079 27.0475 27.0476 95.0789 27.0476 179C27.0476 262.921 95.079 330.952 179 330.952Z" fill="#F6D303"/>
<g filter="url(#filter1_ii_23_2539)">
<path d="M284.413 284.413C298.316 270.51 308.89 254.536 316.152 237.494L179 179L237.494 316.152C254.536 308.89 270.51 298.316 284.413 284.413Z" fill="#DC4A26"/>
</g>
<g filter="url(#filter2_ii_23_2539)">
<path d="M73.5871 284.413C87.4903 298.316 103.464 308.89 120.506 316.152L179 179L41.8477 237.494C49.1098 254.536 59.6838 270.51 73.5871 284.413Z" fill="#6F18FA"/>
</g>
<g filter="url(#filter3_ii_23_2539)">
<path d="M73.5871 73.5871C59.6838 87.4904 49.1098 103.464 41.8477 120.506L179 179L120.506 41.8477C103.464 49.1098 87.4903 59.6839 73.5871 73.5871Z" fill="#DC4A26"/>
</g>
<g filter="url(#filter4_ii_23_2539)">
<path d="M284.413 73.5871C270.51 59.6839 254.536 49.1098 237.494 41.8477L179 179L316.152 120.506C308.89 103.464 298.316 87.4904 284.413 73.5871Z" fill="#6F18FA"/>
</g>
<g filter="url(#filter5_ii_23_2539)">
<path d="M313.289 243.824C322.776 224.229 328.089 202.235 328.089 179C328.089 155.765 322.776 133.771 313.289 114.176C314.306 116.263 315.255 118.385 316.169 120.506L179.017 179L316.169 237.494C315.255 239.615 314.306 241.737 313.289 243.824Z" fill="#EF8521"/>
</g>
<g filter="url(#filter6_ii_23_2539)">
<path d="M44.7111 114.176C35.2238 133.771 29.9109 155.765 29.9109 179C29.9109 202.235 35.2238 224.229 44.7111 243.824C43.6934 241.737 42.7447 239.615 41.8304 237.494L178.983 179L41.8477 120.506C42.7619 118.385 43.7106 116.263 44.7284 114.176H44.7111Z" fill="#EF8521"/>
</g>
<g filter="url(#filter7_ii_23_2539)">
<path d="M243.824 44.7111C224.229 35.2238 202.235 29.9109 179 29.9109C155.765 29.9109 133.771 35.2238 114.176 44.7111C116.263 43.7107 118.385 42.7447 120.506 41.8304L179 178.983L237.494 41.8477C239.615 42.7619 241.737 43.7107 243.824 44.7284V44.7111Z" fill="#00D931"/>
</g>
<g filter="url(#filter8_ii_23_2539)">
<path d="M237.494 316.152L179 179L120.506 316.152C118.385 315.238 116.263 314.289 114.176 313.272C133.771 322.759 155.765 328.072 179 328.072C202.235 328.072 224.229 322.759 243.824 313.272C241.737 314.289 239.615 315.238 237.494 316.152Z" fill="#00D931"/>
</g>
<g style="mix-blend-mode:multiply">
<path d="M179 328.089C261.34 328.089 328.089 261.339 328.089 179C328.089 96.6603 261.34 29.9109 179 29.9109C96.6603 29.9109 29.9109 96.6603 29.9109 179C29.9109 261.339 96.6603 328.089 179 328.089Z" fill="url(#paint1_radial_23_2539)"/>
</g>
<g style="mix-blend-mode:overlay">
<path d="M179 47.8334L204.098 118.402L271.751 86.2484L239.598 153.902L310.166 179L239.598 204.098L271.751 271.752L204.098 239.598L179 310.167L153.902 239.598L86.2483 271.752L118.402 204.098L47.8333 179L118.402 153.902L86.2483 86.2484L153.902 118.402L179 47.8334Z" fill="#AFA5B8"/>
</g>
<g style="mix-blend-mode:overlay">
<path d="M179 137.998L186.849 160.06L207.997 150.003L197.94 171.151L220.003 179L197.94 186.849L207.997 207.997L186.849 197.94L179 220.003L171.151 197.94L150.003 207.997L160.06 186.849L137.998 179L160.06 171.151L150.003 150.003L171.151 160.06L179 137.998Z" fill="#AFA5B8"/>
</g>
<path style="mix-blend-mode:multiply" opacity="0.6" d="M174.877 210.912C189.91 210.912 202.097 198.725 202.097 183.692C202.097 168.659 189.91 156.472 174.877 156.472C159.844 156.472 147.657 168.659 147.657 183.692C147.657 198.725 159.844 210.912 174.877 210.912Z" fill="url(#paint2_radial_23_2539)"/>
<path d="M193.521 193.521C201.544 185.498 201.544 172.49 193.521 164.467C185.498 156.444 172.49 156.444 164.467 164.467C156.443 172.49 156.443 185.498 164.467 193.521C172.49 201.544 185.498 201.544 193.521 193.521Z" fill="url(#paint3_linear_23_2539)"/>
<path d="M193.072 190.915C199.644 183.148 198.674 171.523 190.906 164.952C183.138 158.381 171.514 159.351 164.942 167.119C158.371 174.886 159.341 186.511 167.109 193.082C174.877 199.653 186.501 198.683 193.072 190.915Z" fill="url(#paint4_radial_23_2539)"/>
<defs>
<filter id="filter0_ii_23_2539" x="-1.24023" y="-1.24005" width="360.48" height="360.48" filterUnits="userSpaceOnUse" color-interpolation-filters="sRGB">
<feFlood flood-opacity="0" result="BackgroundImageFix"/>
<feBlend mode="normal" in="SourceGraphic" in2="BackgroundImageFix" result="shape"/>
<feColorMatrix in="SourceAlpha" type="matrix" values="0 0 0 0 0 0 0 0 0 0 0 0 0 0 0 0 0 0 127 0" result="hardAlpha"/>
<feOffset dx="4" dy="4"/>
<feGaussianBlur stdDeviation="2"/>
<feComposite in2="hardAlpha" operator="arithmetic" k2="-1" k3="1"/>
<feColorMatrix type="matrix" values="0 0 0 0 1 0 0 0 0 1 0 0 0 0 1 0 0 0 0.5 0"/>
<feBlend mode="normal" in2="shape" result="effect1_innerShadow_23_2539"/>
<feColorMatrix in="SourceAlpha" type="matrix" values="0 0 0 0 0 0 0 0 0 0 0 0 0 0 0 0 0 0 127 0" result="hardAlpha"/>
<feOffset dx="-5" dy="-4"/>
<feGaussianBlur stdDeviation="2"/>
<feComposite in2="hardAlpha" operator="arithmetic" k2="-1" k3="1"/>
<feColorMatrix type="matrix" values="0 0 0 0 0 0 0 0 0 0 0 0 0 0 0 0 0 0 0.25 0"/>
<feBlend mode="normal" in2="effect1_innerShadow_23_2539" result="effect2_innerShadow_23_2539"/>
</filter>
<filter id="filter1_ii_23_2539" x="175" y="175" width="145.152" height="145.152" filterUnits="userSpaceOnUse" color-interpolation-filters="sRGB">
<feFlood flood-opacity="0" result="BackgroundImageFix"/>
<feBlend mode="normal" in="SourceGraphic" in2="BackgroundImageFix" result="shape"/>
<feColorMatrix in="SourceAlpha" type="matrix" values="0 0 0 0 0 0 0 0 0 0 0 0 0 0 0 0 0 0 127 0" result="hardAlpha"/>
<feOffset dx="4" dy="4"/>
<feGaussianBlur stdDeviation="2"/>
<feComposite in2="hardAlpha" operator="arithmetic" k2="-1" k3="1"/>
<feColorMatrix type="matrix" values="0 0 0 0 1 0 0 0 0 1 0 0 0 0 1 0 0 0 0.5 0"/>
<feBlend mode="normal" in2="shape" result="effect1_innerShadow_23_2539"/>
<feColorMatrix in="SourceAlpha" type="matrix" values="0 0 0 0 0 0 0 0 0 0 0 0 0 0 0 0 0 0 127 0" result="hardAlpha"/>
<feOffset dx="-5" dy="-4"/>
<feGaussianBlur stdDeviation="2"/>
<feComposite in2="hardAlpha" operator="arithmetic" k2="-1" k3="1"/>
<feColorMatrix type="matrix" values="0 0 0 0 0 0 0 0 0 0 0 0 0 0 0 0 0 0 0.25 0"/>
<feBlend mode="normal" in2="effect1_innerShadow_23_2539" result="effect2_innerShadow_23_2539"/>
</filter>
<filter id="filter2_ii_23_2539" x="37.8477" y="175" width="145.152" height="145.152" filterUnits="userSpaceOnUse" color-interpolation-filters="sRGB">
<feFlood flood-opacity="0" result="BackgroundImageFix"/>
<feBlend mode="normal" in="SourceGraphic" in2="BackgroundImageFix" result="shape"/>
<feColorMatrix in="SourceAlpha" type="matrix" values="0 0 0 0 0 0 0 0 0 0 0 0 0 0 0 0 0 0 127 0" result="hardAlpha"/>
<feOffset dx="4" dy="4"/>
<feGaussianBlur stdDeviation="2"/>
<feComposite in2="hardAlpha" operator="arithmetic" k2="-1" k3="1"/>
<feColorMatrix type="matrix" values="0 0 0 0 1 0 0 0 0 1 0 0 0 0 1 0 0 0 0.5 0"/>
<feBlend mode="normal" in2="shape" result="effect1_innerShadow_23_2539"/>
<feColorMatrix in="SourceAlpha" type="matrix" values="0 0 0 0 0 0 0 0 0 0 0 0 0 0 0 0 0 0 127 0" result="hardAlpha"/>
<feOffset dx="-5" dy="-4"/>
<feGaussianBlur stdDeviation="2"/>
<feComposite in2="hardAlpha" operator="arithmetic" k2="-1" k3="1"/>
<feColorMatrix type="matrix" values="0 0 0 0 0 0 0 0 0 0 0 0 0 0 0 0 0 0 0.25 0"/>
<feBlend mode="normal" in2="effect1_innerShadow_23_2539" result="effect2_innerShadow_23_2539"/>
</filter>
<filter id="filter3_ii_23_2539" x="37.8477" y="37.8477" width="145.152" height="145.152" filterUnits="userSpaceOnUse" color-interpolation-filters="sRGB">
<feFlood flood-opacity="0" result="BackgroundImageFix"/>
<feBlend mode="normal" in="SourceGraphic" in2="BackgroundImageFix" result="shape"/>
<feColorMatrix in="SourceAlpha" type="matrix" values="0 0 0 0 0 0 0 0 0 0 0 0 0 0 0 0 0 0 127 0" result="hardAlpha"/>
<feOffset dx="4" dy="4"/>
<feGaussianBlur stdDeviation="2"/>
<feComposite in2="hardAlpha" operator="arithmetic" k2="-1" k3="1"/>
<feColorMatrix type="matrix" values="0 0 0 0 1 0 0 0 0 1 0 0 0 0 1 0 0 0 0.5 0"/>
<feBlend mode="normal" in2="shape" result="effect1_innerShadow_23_2539"/>
<feColorMatrix in="SourceAlpha" type="matrix" values="0 0 0 0 0 0 0 0 0 0 0 0 0 0 0 0 0 0 127 0" result="hardAlpha"/>
<feOffset dx="-5" dy="-4"/>
<feGaussianBlur stdDeviation="2"/>
<feComposite in2="hardAlpha" operator="arithmetic" k2="-1" k3="1"/>
<feColorMatrix type="matrix" values="0 0 0 0 0 0 0 0 0 0 0 0 0 0 0 0 0 0 0.25 0"/>
<feBlend mode="normal" in2="effect1_innerShadow_23_2539" result="effect2_innerShadow_23_2539"/>
</filter>
<filter id="filter4_ii_23_2539" x="175" y="37.8477" width="145.152" height="145.152" filterUnits="userSpaceOnUse" color-interpolation-filters="sRGB">
<feFlood flood-opacity="0" result="BackgroundImageFix"/>
<feBlend mode="normal" in="SourceGraphic" in2="BackgroundImageFix" result="shape"/>
<feColorMatrix in="SourceAlpha" type="matrix" values="0 0 0 0 0 0 0 0 0 0 0 0 0 0 0 0 0 0 127 0" result="hardAlpha"/>
<feOffset dx="4" dy="4"/>
<feGaussianBlur stdDeviation="2"/>
<feComposite in2="hardAlpha" operator="arithmetic" k2="-1" k3="1"/>
<feColorMatrix type="matrix" values="0 0 0 0 1 0 0 0 0 1 0 0 0 0 1 0 0 0 0.5 0"/>
<feBlend mode="normal" in2="shape" result="effect1_innerShadow_23_2539"/>
<feColorMatrix in="SourceAlpha" type="matrix" values="0 0 0 0 0 0 0 0 0 0 0 0 0 0 0 0 0 0 127 0" result="hardAlpha"/>
<feOffset dx="-5" dy="-4"/>
<feGaussianBlur stdDeviation="2"/>
<feComposite in2="hardAlpha" operator="arithmetic" k2="-1" k3="1"/>
<feColorMatrix type="matrix" values="0 0 0 0 0 0 0 0 0 0 0 0 0 0 0 0 0 0 0.25 0"/>
<feBlend mode="normal" in2="effect1_innerShadow_23_2539" result="effect2_innerShadow_23_2539"/>
</filter>
<filter id="filter5_ii_23_2539" x="175.017" y="110.176" width="157.072" height="137.649" filterUnits="userSpaceOnUse" color-interpolation-filters="sRGB">
<feFlood flood-opacity="0" result="BackgroundImageFix"/>
<feBlend mode="normal" in="SourceGraphic" in2="BackgroundImageFix" result="shape"/>
<feColorMatrix in="SourceAlpha" type="matrix" values="0 0 0 0 0 0 0 0 0 0 0 0 0 0 0 0 0 0 127 0" result="hardAlpha"/>
<feOffset dx="4" dy="4"/>
<feGaussianBlur stdDeviation="2"/>
<feComposite in2="hardAlpha" operator="arithmetic" k2="-1" k3="1"/>
<feColorMatrix type="matrix" values="0 0 0 0 1 0 0 0 0 1 0 0 0 0 1 0 0 0 0.5 0"/>
<feBlend mode="normal" in2="shape" result="effect1_innerShadow_23_2539"/>
<feColorMatrix in="SourceAlpha" type="matrix" values="0 0 0 0 0 0 0 0 0 0 0 0 0 0 0 0 0 0 127 0" result="hardAlpha"/>
<feOffset dx="-5" dy="-4"/>
<feGaussianBlur stdDeviation="2"/>
<feComposite in2="hardAlpha" operator="arithmetic" k2="-1" k3="1"/>
<feColorMatrix type="matrix" values="0 0 0 0 0 0 0 0 0 0 0 0 0 0 0 0 0 0 0.25 0"/>
<feBlend mode="normal" in2="effect1_innerShadow_23_2539" result="effect2_innerShadow_23_2539"/>
</filter>
<filter id="filter6_ii_23_2539" x="25.9109" y="110.176" width="157.072" height="137.649" filterUnits="userSpaceOnUse" color-interpolation-filters="sRGB">
<feFlood flood-opacity="0" result="BackgroundImageFix"/>
<feBlend mode="normal" in="SourceGraphic" in2="BackgroundImageFix" result="shape"/>
<feColorMatrix in="SourceAlpha" type="matrix" values="0 0 0 0 0 0 0 0 0 0 0 0 0 0 0 0 0 0 127 0" result="hardAlpha"/>
<feOffset dx="4" dy="4"/>
<feGaussianBlur stdDeviation="2"/>
<feComposite in2="hardAlpha" operator="arithmetic" k2="-1" k3="1"/>
<feColorMatrix type="matrix" values="0 0 0 0 1 0 0 0 0 1 0 0 0 0 1 0 0 0 0.5 0"/>
<feBlend mode="normal" in2="shape" result="effect1_innerShadow_23_2539"/>
<feColorMatrix in="SourceAlpha" type="matrix" values="0 0 0 0 0 0 0 0 0 0 0 0 0 0 0 0 0 0 127 0" result="hardAlpha"/>
<feOffset dx="-5" dy="-4"/>
<feGaussianBlur stdDeviation="2"/>
<feComposite in2="hardAlpha" operator="arithmetic" k2="-1" k3="1"/>
<feColorMatrix type="matrix" values="0 0 0 0 0 0 0 0 0 0 0 0 0 0 0 0 0 0 0.25 0"/>
<feBlend mode="normal" in2="effect1_innerShadow_23_2539" result="effect2_innerShadow_23_2539"/>
</filter>
<filter id="filter7_ii_23_2539" x="110.176" y="25.9109" width="137.648" height="157.072" filterUnits="userSpaceOnUse" color-interpolation-filters="sRGB">
<feFlood flood-opacity="0" result="BackgroundImageFix"/>
<feBlend mode="normal" in="SourceGraphic" in2="BackgroundImageFix" result="shape"/>
<feColorMatrix in="SourceAlpha" type="matrix" values="0 0 0 0 0 0 0 0 0 0 0 0 0 0 0 0 0 0 127 0" result="hardAlpha"/>
<feOffset dx="4" dy="4"/>
<feGaussianBlur stdDeviation="2"/>
<feComposite in2="hardAlpha" operator="arithmetic" k2="-1" k3="1"/>
<feColorMatrix type="matrix" values="0 0 0 0 1 0 0 0 0 1 0 0 0 0 1 0 0 0 0.5 0"/>
<feBlend mode="normal" in2="shape" result="effect1_innerShadow_23_2539"/>
<feColorMatrix in="SourceAlpha" type="matrix" values="0 0 0 0 0 0 0 0 0 0 0 0 0 0 0 0 0 0 127 0" result="hardAlpha"/>
<feOffset dx="-5" dy="-4"/>
<feGaussianBlur stdDeviation="2"/>
<feComposite in2="hardAlpha" operator="arithmetic" k2="-1" k3="1"/>
<feColorMatrix type="matrix" values="0 0 0 0 0 0 0 0 0 0 0 0 0 0 0 0 0 0 0.25 0"/>
<feBlend mode="normal" in2="effect1_innerShadow_23_2539" result="effect2_innerShadow_23_2539"/>
</filter>
<filter id="filter8_ii_23_2539" x="110.176" y="175" width="137.648" height="157.072" filterUnits="userSpaceOnUse" color-interpolation-filters="sRGB">
<feFlood flood-opacity="0" result="BackgroundImageFix"/>
<feBlend mode="normal" in="SourceGraphic" in2="BackgroundImageFix" result="shape"/>
<feColorMatrix in="SourceAlpha" type="matrix" values="0 0 0 0 0 0 0 0 0 0 0 0 0 0 0 0 0 0 127 0" result="hardAlpha"/>
<feOffset dx="4" dy="4"/>
<feGaussianBlur stdDeviation="2"/>
<feComposite in2="hardAlpha" operator="arithmetic" k2="-1" k3="1"/>
<feColorMatrix type="matrix" values="0 0 0 0 1 0 0 0 0 1 0 0 0 0 1 0 0 0 0.5 0"/>
<feBlend mode="normal" in2="shape" result="effect1_innerShadow_23_2539"/>
<feColorMatrix in="SourceAlpha" type="matrix" values="0 0 0 0 0 0 0 0 0 0 0 0 0 0 0 0 0 0 127 0" result="hardAlpha"/>
<feOffset dx="-5" dy="-4"/>
<feGaussianBlur stdDeviation="2"/>
<feComposite in2="hardAlpha" operator="arithmetic" k2="-1" k3="1"/>
<feColorMatrix type="matrix" values="0 0 0 0 0 0 0 0 0 0 0 0 0 0 0 0 0 0 0.25 0"/>
<feBlend mode="normal" in2="effect1_innerShadow_23_2539" result="effect2_innerShadow_23_2539"/>
</filter>
<linearGradient id="paint0_linear_23_2539" x1="179" y1="2.75995" x2="179" y2="355.24" gradientUnits="userSpaceOnUse">
<stop stop-color="#4400A7"/>
<stop offset="1" stop-color="#090034"/>
</linearGradient>
<radialGradient id="paint1_radial_23_2539" cx="0" cy="0" r="1" gradientUnits="userSpaceOnUse" gradientTransform="translate(178.999 191.971) rotate(90) scale(136.118 149.089)">
<stop stop-color="#FFEE37" stop-opacity="0.56"/>
<stop offset="1" stop-color="#FFF8AC" stop-opacity="0"/>
</radialGradient>
<radialGradient id="paint2_radial_23_2539" cx="0" cy="0" r="1" gradientUnits="userSpaceOnUse" gradientTransform="translate(174.877 183.692) scale(27.22 27.22)">
<stop offset="0.63" stop-color="#662E29"/>
<stop offset="0.66" stop-color="#75423E"/>
<stop offset="0.78" stop-color="#AF9290"/>
<stop offset="0.88" stop-color="#DACDCB"/>
<stop offset="0.96" stop-color="#F4F1F0"/>
<stop offset="1" stop-color="white"/>
</radialGradient>
<linearGradient id="paint3_linear_23_2539" x1="164.467" y1="164.467" x2="193.521" y2="193.521" gradientUnits="userSpaceOnUse">
<stop stop-color="#4400A7"/>
<stop offset="1" stop-color="#090034"/>
</linearGradient>
<radialGradient id="paint4_radial_23_2539" cx="0" cy="0" r="1" gradientUnits="userSpaceOnUse" gradientTransform="translate(179.007 179.017) rotate(40.23) scale(18.4227 18.4227)">
<stop stop-color="#4201A4"/>
<stop offset="1" stop-color="#090135"/>
</radialGradient>
</defs>
</svg>
