<svg width="390" height="151" viewBox="0 0 390 151" fill="none" xmlns="http://www.w3.org/2000/svg">
<path d="M0.47051 114.573L165.078 122.667L171.036 122.656L390.014 132.751L385.409 99.704L241.719 107.836L375.646 79.7838L333.046 42.609L229.757 96.3152L303.263 20.5054L214.821 0.403377L199.225 96.3708L171.007 0.398547L94.8022 13.7425L170.943 100.095L60.4553 33.6618L28.5492 61.5283L165.018 107.976L9.29821 88.3223L0.47051 114.573Z" fill="url(#paint0_radial_14_801)"/>
<g filter="url(#filter0_d_14_801)">
<path d="M39.6971 92.7329H98.6951C100.904 92.7329 102.695 94.5238 102.695 96.7329V143.255C102.695 145.464 100.904 147.255 98.6951 147.255H39.6971C35.7756 147.255 34.196 142.198 37.4203 139.966L61.5194 123.283C63.817 121.692 63.817 118.296 61.5194 116.705L37.4203 100.022C34.196 97.7896 35.7756 92.7329 39.6971 92.7329Z" fill="#6F18FA"/>
<path d="M39.6971 90.5077H98.6951C100.904 90.5077 102.695 92.2986 102.695 94.5077V141.03C102.695 143.239 100.904 145.03 98.6951 145.03H39.6971C35.7756 145.03 34.196 139.973 37.4203 137.741L61.5194 121.057C63.817 119.467 63.817 116.07 61.5194 114.48L37.4203 97.7965C34.196 95.5644 35.7756 90.5077 39.6971 90.5077Z" fill="url(#paint1_linear_14_801)"/>
<path d="M342.565 92.7329H283.567C281.357 92.7329 279.567 94.5238 279.567 96.7329V143.255C279.567 145.464 281.357 147.255 283.567 147.255H342.565C346.486 147.255 348.066 142.198 344.841 139.966L320.742 123.283C318.445 121.692 318.445 118.296 320.742 116.705L344.841 100.022C348.066 97.7896 346.486 92.7329 342.565 92.7329Z" fill="#6F18FA"/>
<path d="M342.565 90.5077H283.567C281.357 90.5077 279.567 92.2986 279.567 94.5077V141.03C279.567 143.239 281.357 145.03 283.567 145.03H342.565C346.486 145.03 348.066 139.973 344.841 137.741L320.742 121.057C318.445 119.467 318.445 116.07 320.742 114.48L344.841 97.7965C348.066 95.5644 346.486 90.5077 342.565 90.5077Z" fill="url(#paint2_linear_14_801)"/>
<path d="M102.694 141.135V130.564V127.226H83.7432V127.783L102.694 141.135Z" fill="#090034"/>
<path d="M279.567 141.135V130.565V127.226L298.518 125.557C298.518 125.557 299.308 123.888 299.308 125.557L279.567 141.135Z" fill="#090034"/>
<rect x="77.4263" y="73.8173" width="225.83" height="56.7472" rx="12" fill="#6F18FA"/>
<rect x="77.4263" y="71.5919" width="225.83" height="56.7472" rx="12" fill="url(#paint3_linear_14_801)"/>
</g>
<mask id="path-10-outside-1_14_801" maskUnits="userSpaceOnUse" x="152.993" y="19.1191" width="73" height="58" fill="black">
<rect fill="white" x="152.993" y="19.1191" width="73" height="58"/>
<path fill-rule="evenodd" clip-rule="evenodd" d="M192.556 22.8243C190.964 20.5508 187.596 20.5508 186.004 22.8243L177.497 34.969C176.83 35.9203 175.783 36.535 174.628 36.6533L158.59 38.2953C155.773 38.5837 154.391 41.4228 155.241 43.6933C154.664 45.2847 155.064 47.2227 156.733 48.3684L166.242 54.8993C166.95 55.3858 167.465 56.0725 167.742 56.8455L165.395 66.4899C165.195 67.3091 165.258 68.0995 165.513 68.7992L165.395 69.2866C164.637 72.4004 167.665 75.0968 170.67 73.9836L187.891 67.605C188.787 67.2729 189.773 67.2729 190.669 67.605L207.889 73.9836C210.895 75.0968 213.923 72.4004 213.165 69.2866L213.047 68.7991C213.302 68.0995 213.365 67.3091 213.165 66.4899L210.818 56.8455C211.095 56.0725 211.61 55.3858 212.318 54.8993L221.827 48.3684C223.496 47.2227 223.896 45.2847 223.319 43.6933C224.168 41.4228 222.787 38.5837 219.97 38.2953L203.932 36.6533C202.776 36.535 201.729 35.9203 201.063 34.969L192.556 22.8243Z"/>
</mask>
<path fill-rule="evenodd" clip-rule="evenodd" d="M192.556 22.8243C190.964 20.5508 187.596 20.5508 186.004 22.8243L177.497 34.969C176.83 35.9203 175.783 36.535 174.628 36.6533L158.59 38.2953C155.773 38.5837 154.391 41.4228 155.241 43.6933C154.664 45.2847 155.064 47.2227 156.733 48.3684L166.242 54.8993C166.95 55.3858 167.465 56.0725 167.742 56.8455L165.395 66.4899C165.195 67.3091 165.258 68.0995 165.513 68.7992L165.395 69.2866C164.637 72.4004 167.665 75.0968 170.67 73.9836L187.891 67.605C188.787 67.2729 189.773 67.2729 190.669 67.605L207.889 73.9836C210.895 75.0968 213.923 72.4004 213.165 69.2866L213.047 68.7991C213.302 68.0995 213.365 67.3091 213.165 66.4899L210.818 56.8455C211.095 56.0725 211.61 55.3858 212.318 54.8993L221.827 48.3684C223.496 47.2227 223.896 45.2847 223.319 43.6933C224.168 41.4228 222.787 38.5837 219.97 38.2953L203.932 36.6533C202.776 36.535 201.729 35.9203 201.063 34.969L192.556 22.8243Z" fill="#EF8521"/>
<path d="M186.004 22.8243L184.366 21.6768V21.6768L186.004 22.8243ZM192.556 22.8243L190.918 23.9717V23.9717L192.556 22.8243ZM177.497 34.969L175.859 33.8215V33.8215L177.497 34.969ZM174.628 36.6533L174.424 34.6637H174.424L174.628 36.6533ZM158.59 38.2953L158.386 36.3057H158.386L158.59 38.2953ZM155.241 43.6933L157.121 44.375L157.373 43.6823L157.114 42.9923L155.241 43.6933ZM156.733 48.3684L155.6 50.0171H155.6L156.733 48.3684ZM166.242 54.8993L165.11 56.5479L165.11 56.5479L166.242 54.8993ZM167.742 56.8455L169.686 57.3185L169.828 56.7351L169.625 56.1699L167.742 56.8455ZM165.395 66.4899L163.451 66.0169L165.395 66.4899ZM165.513 68.7992L167.456 69.2722L167.6 68.683L167.392 68.1133L165.513 68.7992ZM165.395 69.2866L167.338 69.7596L165.395 69.2866ZM170.67 73.9836L169.976 72.1081H169.976L170.67 73.9836ZM187.891 67.605L187.196 65.7295L187.891 67.605ZM190.669 67.605L189.975 69.4805H189.975L190.669 67.605ZM207.889 73.9836L207.195 75.8591L207.889 73.9836ZM213.165 69.2866L211.222 69.7596V69.7596L213.165 69.2866ZM213.047 68.7991L211.168 68.1134L210.96 68.683L211.103 69.2722L213.047 68.7991ZM213.165 66.4899L215.109 66.0169L215.109 66.0169L213.165 66.4899ZM210.818 56.8455L208.935 56.1698L208.732 56.7351L208.874 57.3185L210.818 56.8455ZM212.318 54.8993L213.45 56.5479V56.5479L212.318 54.8993ZM221.827 48.3684L220.695 46.7198V46.7198L221.827 48.3684ZM223.319 43.6933L221.446 42.9923L221.187 43.6823L221.439 44.375L223.319 43.6933ZM219.97 38.2953L220.174 36.3057L219.97 38.2953ZM203.932 36.6533L204.136 34.6637L203.932 36.6533ZM201.063 34.969L202.701 33.8215V33.8215L201.063 34.969ZM187.642 23.9717C188.438 22.835 190.122 22.835 190.918 23.9717L194.194 21.6768C191.806 18.2666 186.754 18.2666 184.366 21.6768L187.642 23.9717ZM179.135 36.1164L187.642 23.9717L184.366 21.6768L175.859 33.8215L179.135 36.1164ZM174.832 38.6429C176.565 38.4655 178.135 37.5434 179.135 36.1164L175.859 33.8215C175.526 34.2972 175.002 34.6046 174.424 34.6637L174.832 38.6429ZM158.793 40.2849L174.832 38.6429L174.424 34.6637L158.386 36.3057L158.793 40.2849ZM157.114 42.9923C156.671 41.808 157.426 40.4249 158.793 40.2849L158.386 36.3057C154.12 36.7425 152.112 41.0376 153.368 44.3943L157.114 42.9923ZM157.865 46.7198C157.035 46.1496 156.817 45.2133 157.121 44.375L153.361 43.0116C152.511 45.3561 153.094 48.2958 155.6 50.0171L157.865 46.7198ZM167.374 53.2507L157.865 46.7198L155.6 50.0171L165.11 56.5479L167.374 53.2507ZM169.625 56.1699C169.209 55.0112 168.437 53.9803 167.374 53.2507L165.11 56.5479C165.464 56.7912 165.721 57.1337 165.86 57.5211L169.625 56.1699ZM167.338 66.963L169.686 57.3185L165.799 56.3724L163.451 66.0169L167.338 66.963ZM167.392 68.1133C167.269 67.7777 167.234 67.3904 167.338 66.963L163.451 66.0169C163.157 67.2279 163.246 68.4213 163.634 69.485L167.392 68.1133ZM167.338 69.7596L167.456 69.2722L163.57 68.3261L163.451 68.8135L167.338 69.7596ZM169.976 72.1081C168.473 72.6647 166.959 71.3166 167.338 69.7596L163.451 68.8135C162.314 73.4843 166.857 77.5289 171.365 75.8591L169.976 72.1081ZM187.196 65.7295L169.976 72.1081L171.365 75.8591L188.585 69.4805L187.196 65.7295ZM191.364 65.7295C190.019 65.2314 188.541 65.2314 187.196 65.7295L188.585 69.4805C189.034 69.3144 189.526 69.3144 189.975 69.4805L191.364 65.7295ZM208.584 72.1081L191.364 65.7295L189.975 69.4805L207.195 75.8591L208.584 72.1081ZM211.222 69.7596C211.601 71.3166 210.087 72.6647 208.584 72.1081L207.195 75.8591C211.703 77.5289 216.246 73.4843 215.109 68.8135L211.222 69.7596ZM211.103 69.2722L211.222 69.7596L215.109 68.8135L214.99 68.3261L211.103 69.2722ZM211.222 66.963C211.326 67.3904 211.29 67.7777 211.168 68.1134L214.925 69.4849C215.314 68.4213 215.403 67.2279 215.109 66.0169L211.222 66.963ZM208.874 57.3185L211.222 66.963L215.109 66.0169L212.761 56.3724L208.874 57.3185ZM211.186 53.2507C210.123 53.9803 209.351 55.0112 208.935 56.1698L212.7 57.5211C212.839 57.1337 213.096 56.7912 213.45 56.5479L211.186 53.2507ZM220.695 46.7198L211.186 53.2507L213.45 56.5479L222.96 50.0171L220.695 46.7198ZM221.439 44.375C221.743 45.2133 221.525 46.1496 220.695 46.7198L222.96 50.0171C225.466 48.2958 226.049 45.3561 225.199 43.0116L221.439 44.375ZM219.766 40.2849C221.134 40.4249 221.889 41.808 221.446 42.9923L225.192 44.3943C226.448 41.0376 224.44 36.7425 220.174 36.3057L219.766 40.2849ZM203.728 38.6429L219.766 40.2849L220.174 36.3057L204.136 34.6637L203.728 38.6429ZM199.425 36.1164C200.425 37.5434 201.995 38.4655 203.728 38.6429L204.136 34.6637C203.558 34.6046 203.034 34.2972 202.701 33.8215L199.425 36.1164ZM190.918 23.9717L199.425 36.1164L202.701 33.8215L194.194 21.6768L190.918 23.9717Z" fill="white" mask="url(#path-10-outside-1_14_801)"/>
<g filter="url(#filter1_d_14_801)">
<path d="M186.277 22.8599C187.87 20.5864 191.237 20.5864 192.83 22.8599L201.337 35.0046C202.003 35.956 203.05 36.5707 204.205 36.689L220.244 38.331C223.947 38.7102 225.17 43.4996 222.101 45.6074L212.592 52.1383C211.222 53.0787 210.577 54.7676 210.97 56.3816L213.439 66.5256C214.197 69.6394 211.168 72.3358 208.163 71.2226L190.943 64.844C190.046 64.5119 189.061 64.5119 188.164 64.844L170.944 71.2226C167.939 72.3358 164.91 69.6394 165.668 66.5256L168.137 56.3816C168.53 54.7676 167.885 53.0787 166.515 52.1383L157.006 45.6074C153.937 43.4996 155.16 38.7102 158.863 38.331L174.902 36.689C176.057 36.5707 177.104 35.956 177.77 35.0046L186.277 22.8599Z" fill="#F6D303"/>
</g>
<mask id="path-13-outside-2_14_801" maskUnits="userSpaceOnUse" x="96.8521" y="38.0409" width="59" height="48" fill="black">
<rect fill="white" x="96.8521" y="38.0409" width="59" height="48"/>
<path fill-rule="evenodd" clip-rule="evenodd" d="M129.494 41.746C127.902 39.4725 124.535 39.4725 122.942 41.746L116.574 50.8374C115.907 51.7887 114.86 52.4034 113.705 52.5217L102.449 53.6741C99.7266 53.9528 98.3449 56.6145 99.0227 58.8424C98.5658 60.3855 99.0056 62.1916 100.592 63.2811L106.641 67.4353C107.409 67.9629 107.949 68.726 108.206 69.5794L106.61 76.1361C106.429 76.8797 106.464 77.5995 106.663 78.2493L106.61 78.4666C105.852 81.5805 108.881 84.2768 111.886 83.1636L124.829 78.3695C125.725 78.0374 126.711 78.0374 127.608 78.3695L140.55 83.1636C143.555 84.2768 146.584 81.5805 145.826 78.4666L145.773 78.2493C145.972 77.5995 146.007 76.8797 145.826 76.1361L144.23 69.5794C144.487 68.726 145.027 67.9629 145.796 67.4353L151.844 63.2811C153.431 62.1916 153.871 60.3855 153.414 58.8424C154.092 56.6145 152.71 53.9528 149.987 53.6741L138.731 52.5217C137.576 52.4034 136.529 51.7887 135.863 50.8374L129.494 41.746Z"/>
</mask>
<path fill-rule="evenodd" clip-rule="evenodd" d="M129.494 41.746C127.902 39.4725 124.535 39.4725 122.942 41.746L116.574 50.8374C115.907 51.7887 114.86 52.4034 113.705 52.5217L102.449 53.6741C99.7266 53.9528 98.3449 56.6145 99.0227 58.8424C98.5658 60.3855 99.0056 62.1916 100.592 63.2811L106.641 67.4353C107.409 67.9629 107.949 68.726 108.206 69.5794L106.61 76.1361C106.429 76.8797 106.464 77.5995 106.663 78.2493L106.61 78.4666C105.852 81.5805 108.881 84.2768 111.886 83.1636L124.829 78.3695C125.725 78.0374 126.711 78.0374 127.608 78.3695L140.55 83.1636C143.555 84.2768 146.584 81.5805 145.826 78.4666L145.773 78.2493C145.972 77.5995 146.007 76.8797 145.826 76.1361L144.23 69.5794C144.487 68.726 145.027 67.9629 145.796 67.4353L151.844 63.2811C153.431 62.1916 153.871 60.3855 153.414 58.8424C154.092 56.6145 152.71 53.9528 149.987 53.6741L138.731 52.5217C137.576 52.4034 136.529 51.7887 135.863 50.8374L129.494 41.746Z" fill="#EF8521"/>
<path d="M122.942 41.746L121.304 40.5986L121.304 40.5986L122.942 41.746ZM129.494 41.746L131.133 40.5986V40.5986L129.494 41.746ZM116.574 50.8374L114.936 49.69L116.574 50.8374ZM113.705 52.5217L113.501 50.5321L113.705 52.5217ZM102.449 53.6741L102.245 51.6845L102.449 53.6741ZM99.0227 58.8424L100.94 59.4102L101.111 58.8346L100.936 58.2603L99.0227 58.8424ZM100.592 63.2811L101.724 61.6325H101.724L100.592 63.2811ZM106.641 67.4353L107.773 65.7866L106.641 67.4353ZM108.206 69.5794L110.15 70.0524L110.278 69.5237L110.121 69.0026L108.206 69.5794ZM106.61 76.1361L108.554 76.6091L106.61 76.1361ZM106.663 78.2493L108.606 78.7223L108.736 78.1888L108.576 77.6637L106.663 78.2493ZM106.61 78.4666L108.554 78.9397L106.61 78.4666ZM111.886 83.1636L112.581 85.0391H112.581L111.886 83.1636ZM124.829 78.3695L124.134 76.494L124.829 78.3695ZM127.608 78.3695L126.913 80.245L127.608 78.3695ZM140.55 83.1636L141.245 81.2882V81.2882L140.55 83.1636ZM145.826 78.4666L147.769 77.9936L147.769 77.9936L145.826 78.4666ZM145.773 78.2493L143.861 77.6637L143.7 78.1888L143.83 78.7224L145.773 78.2493ZM145.826 76.1361L147.769 75.6631L145.826 76.1361ZM144.23 69.5794L142.315 69.0026L142.158 69.5237L142.287 70.0524L144.23 69.5794ZM145.796 67.4353L146.928 69.0839L145.796 67.4353ZM151.844 63.2811L152.977 64.9297L151.844 63.2811ZM153.414 58.8424L151.5 58.2603L151.326 58.8346L151.496 59.4102L153.414 58.8424ZM149.987 53.6741L149.784 55.6637L149.987 53.6741ZM138.731 52.5217L138.935 50.5321L138.731 52.5217ZM135.863 50.8374L137.501 49.69L135.863 50.8374ZM124.58 42.8935C125.376 41.7567 127.06 41.7567 127.856 42.8935L131.133 40.5986C128.744 37.1883 123.693 37.1883 121.304 40.5986L124.58 42.8935ZM118.212 51.9848L124.58 42.8935L121.304 40.5986L114.936 49.69L118.212 51.9848ZM113.909 54.5113C115.642 54.3339 117.212 53.4118 118.212 51.9848L114.936 49.69C114.603 50.1656 114.079 50.473 113.501 50.5321L113.909 54.5113ZM102.653 55.6637L113.909 54.5113L113.501 50.5321L102.245 51.6845L102.653 55.6637ZM100.936 58.2603C100.58 57.09 101.331 55.7991 102.653 55.6637L102.245 51.6845C98.1227 52.1066 96.1097 56.139 97.1093 59.4246L100.936 58.2603ZM101.724 61.6325C100.93 61.0871 100.702 60.2168 100.94 59.4102L97.105 58.2747C96.4301 60.5542 97.081 63.296 99.4598 64.9297L101.724 61.6325ZM107.773 65.7866L101.724 61.6325L99.4598 64.9297L105.508 69.0839L107.773 65.7866ZM110.121 69.0026C109.736 67.7238 108.925 66.5781 107.773 65.7866L105.508 69.0839C105.892 69.3476 106.162 69.7283 106.291 70.1562L110.121 69.0026ZM108.554 76.6091L110.15 70.0524L106.263 69.1064L104.667 75.6631L108.554 76.6091ZM108.576 77.6637C108.48 77.3528 108.459 76.9987 108.554 76.6091L104.667 75.6631C104.4 76.7607 104.448 77.8462 104.751 78.8349L108.576 77.6637ZM108.554 78.9397L108.606 78.7223L104.72 77.7763L104.667 77.9936L108.554 78.9397ZM111.192 81.2882C109.689 81.8448 108.175 80.4966 108.554 78.9397L104.667 77.9936C103.53 82.6644 108.073 86.7089 112.581 85.0391L111.192 81.2882ZM124.134 76.494L111.192 81.2882L112.581 85.0391L125.524 80.245L124.134 76.494ZM128.302 76.494C126.958 75.9959 125.479 75.9959 124.134 76.494L125.524 80.245C125.972 80.0789 126.465 80.0789 126.913 80.245L128.302 76.494ZM141.245 81.2882L128.302 76.494L126.913 80.245L139.855 85.0391L141.245 81.2882ZM143.883 78.9397C144.262 80.4966 142.748 81.8448 141.245 81.2882L139.855 85.0391C144.363 86.7089 148.906 82.6644 147.769 77.9936L143.883 78.9397ZM143.83 78.7224L143.883 78.9397L147.769 77.9936L147.716 77.7762L143.83 78.7224ZM143.883 76.6091C143.978 76.9987 143.956 77.3528 143.861 77.6637L147.686 78.8349C147.988 77.8462 148.037 76.7608 147.769 75.6631L143.883 76.6091ZM142.287 70.0524L143.883 76.6091L147.769 75.6631L146.173 69.1064L142.287 70.0524ZM144.663 65.7866C143.511 66.5781 142.7 67.7238 142.315 69.0026L146.145 70.1562C146.274 69.7283 146.544 69.3476 146.928 69.0839L144.663 65.7866ZM150.712 61.6324L144.663 65.7866L146.928 69.0839L152.977 64.9297L150.712 61.6324ZM151.496 59.4102C151.735 60.2168 151.506 61.0871 150.712 61.6324L152.977 64.9297C155.355 63.296 156.006 60.5542 155.331 58.2747L151.496 59.4102ZM149.784 55.6637C151.106 55.7991 151.856 57.09 151.5 58.2603L155.327 59.4246C156.327 56.139 154.314 52.1066 150.191 51.6845L149.784 55.6637ZM138.528 54.5113L149.784 55.6637L150.191 51.6845L138.935 50.5321L138.528 54.5113ZM134.225 51.9848C135.224 53.4118 136.795 54.3339 138.528 54.5113L138.935 50.5321C138.357 50.473 137.834 50.1656 137.501 49.69L134.225 51.9848ZM127.856 42.8935L134.225 51.9848L137.501 49.69L131.133 40.5986L127.856 42.8935Z" fill="white" mask="url(#path-13-outside-2_14_801)"/>
<g filter="url(#filter2_d_14_801)">
<path d="M123.171 41.7757C124.763 39.5022 128.131 39.5022 129.723 41.7757L136.091 50.8671C136.758 51.8184 137.805 52.4331 138.96 52.5514L150.216 53.7038C153.92 54.083 155.142 58.8725 152.073 60.9802L146.025 65.1344C144.655 66.0749 144.01 67.7638 144.403 69.3778L146.055 76.1658C146.813 79.2797 143.784 81.976 140.779 80.8628L127.837 76.0687C126.94 75.7366 125.954 75.7366 125.058 76.0687L112.115 80.8628C109.11 81.976 106.081 79.2797 106.839 76.1658L108.492 69.3778C108.884 67.7638 108.239 66.0749 106.87 65.1344L100.821 60.9803C97.7519 58.8725 98.9743 54.083 102.678 53.7038L113.934 52.5514C115.089 52.4331 116.136 51.8184 116.803 50.8671L123.171 41.7757Z" fill="#F6D303"/>
</g>
<mask id="path-16-outside-3_14_801" maskUnits="userSpaceOnUse" x="221.611" y="38.0409" width="59" height="48" fill="black">
<rect fill="white" x="221.611" y="38.0409" width="59" height="48"/>
<path fill-rule="evenodd" clip-rule="evenodd" d="M254.253 41.746C252.661 39.4725 249.293 39.4725 247.701 41.746L241.333 50.8374C240.666 51.7887 239.619 52.4034 238.464 52.5217L227.208 53.6741C224.485 53.9528 223.104 56.6145 223.782 58.8424C223.325 60.3855 223.764 62.1916 225.351 63.2811L231.4 67.4353C232.168 67.9629 232.708 68.726 232.965 69.5794L231.369 76.1361C231.188 76.8797 231.223 77.5995 231.422 78.2493L231.369 78.4666C230.611 81.5805 233.64 84.2768 236.645 83.1636L249.588 78.3695C250.484 78.0374 251.47 78.0374 252.366 78.3695L265.309 83.1636C268.314 84.2768 271.343 81.5805 270.585 78.4666L270.532 78.2493C270.731 77.5995 270.766 76.8797 270.585 76.1361L268.989 69.5794C269.246 68.726 269.786 67.9629 270.554 67.4353L276.603 63.2811C278.19 62.1916 278.629 60.3855 278.172 58.8424C278.85 56.6145 277.469 53.9528 274.746 53.6741L263.49 52.5217C262.335 52.4034 261.288 51.7887 260.621 50.8374L254.253 41.746Z"/>
</mask>
<path fill-rule="evenodd" clip-rule="evenodd" d="M254.253 41.746C252.661 39.4725 249.293 39.4725 247.701 41.746L241.333 50.8374C240.666 51.7887 239.619 52.4034 238.464 52.5217L227.208 53.6741C224.485 53.9528 223.104 56.6145 223.782 58.8424C223.325 60.3855 223.764 62.1916 225.351 63.2811L231.4 67.4353C232.168 67.9629 232.708 68.726 232.965 69.5794L231.369 76.1361C231.188 76.8797 231.223 77.5995 231.422 78.2493L231.369 78.4666C230.611 81.5805 233.64 84.2768 236.645 83.1636L249.588 78.3695C250.484 78.0374 251.47 78.0374 252.366 78.3695L265.309 83.1636C268.314 84.2768 271.343 81.5805 270.585 78.4666L270.532 78.2493C270.731 77.5995 270.766 76.8797 270.585 76.1361L268.989 69.5794C269.246 68.726 269.786 67.9629 270.554 67.4353L276.603 63.2811C278.19 62.1916 278.629 60.3855 278.172 58.8424C278.85 56.6145 277.469 53.9528 274.746 53.6741L263.49 52.5217C262.335 52.4034 261.288 51.7887 260.621 50.8374L254.253 41.746Z" fill="#DC4A26"/>
<path d="M247.701 41.746L246.063 40.5986L246.063 40.5986L247.701 41.746ZM254.253 41.746L255.891 40.5986V40.5986L254.253 41.746ZM241.333 50.8374L239.694 49.69L241.333 50.8374ZM238.464 52.5217L238.26 50.5321L238.464 52.5217ZM227.208 53.6741L227.004 51.6845L227.208 53.6741ZM223.782 58.8424L225.699 59.4102L225.87 58.8346L225.695 58.2603L223.782 58.8424ZM225.351 63.2811L226.483 61.6325H226.483L225.351 63.2811ZM231.4 67.4353L232.532 65.7866L231.4 67.4353ZM232.965 69.5794L234.908 70.0524L235.037 69.5237L234.88 69.0026L232.965 69.5794ZM231.369 76.1361L233.312 76.6091L231.369 76.1361ZM231.422 78.2493L233.365 78.7223L233.495 78.1888L233.334 77.6637L231.422 78.2493ZM231.369 78.4666L233.312 78.9397L231.369 78.4666ZM236.645 83.1636L237.34 85.0391H237.34L236.645 83.1636ZM249.588 78.3695L248.893 76.494L249.588 78.3695ZM252.366 78.3695L251.672 80.245L252.366 78.3695ZM265.309 83.1636L266.004 81.2882V81.2882L265.309 83.1636ZM270.585 78.4666L272.528 77.9936L272.528 77.9936L270.585 78.4666ZM270.532 78.2493L268.62 77.6637L268.459 78.1888L268.589 78.7224L270.532 78.2493ZM270.585 76.1361L272.528 75.6631L270.585 76.1361ZM268.989 69.5794L267.074 69.0026L266.917 69.5237L267.046 70.0524L268.989 69.5794ZM270.554 67.4353L271.687 69.0839L270.554 67.4353ZM276.603 63.2811L277.735 64.9297L276.603 63.2811ZM278.172 58.8424L276.259 58.2603L276.084 58.8346L276.255 59.4102L278.172 58.8424ZM274.746 53.6741L274.542 55.6637L274.746 53.6741ZM263.49 52.5217L263.694 50.5321L263.49 52.5217ZM260.621 50.8374L262.26 49.69L260.621 50.8374ZM249.339 42.8935C250.135 41.7567 251.819 41.7567 252.615 42.8935L255.891 40.5986C253.503 37.1883 248.451 37.1883 246.063 40.5986L249.339 42.8935ZM242.971 51.9848L249.339 42.8935L246.063 40.5986L239.694 49.69L242.971 51.9848ZM238.667 54.5113C240.401 54.3339 241.971 53.4118 242.971 51.9848L239.694 49.69C239.361 50.1656 238.838 50.473 238.26 50.5321L238.667 54.5113ZM227.412 55.6637L238.667 54.5113L238.26 50.5321L227.004 51.6845L227.412 55.6637ZM225.695 58.2603C225.339 57.09 226.089 55.7991 227.412 55.6637L227.004 51.6845C222.881 52.1066 220.868 56.139 221.868 59.4246L225.695 58.2603ZM226.483 61.6325C225.689 61.0871 225.46 60.2168 225.699 59.4102L221.864 58.2747C221.189 60.5542 221.84 63.296 224.219 64.9297L226.483 61.6325ZM232.532 65.7866L226.483 61.6325L224.219 64.9297L230.267 69.0839L232.532 65.7866ZM234.88 69.0026C234.495 67.7238 233.684 66.5781 232.532 65.7866L230.267 69.0839C230.651 69.3476 230.921 69.7283 231.05 70.1562L234.88 69.0026ZM233.312 76.6091L234.908 70.0524L231.022 69.1064L229.426 75.6631L233.312 76.6091ZM233.334 77.6637C233.239 77.3528 233.218 76.9987 233.312 76.6091L229.426 75.6631C229.159 76.7607 229.207 77.8462 229.51 78.8349L233.334 77.6637ZM233.312 78.9397L233.365 78.7223L229.479 77.7763L229.426 77.9936L233.312 78.9397ZM235.95 81.2882C234.448 81.8448 232.933 80.4966 233.312 78.9397L229.426 77.9936C228.289 82.6644 232.832 86.7089 237.34 85.0391L235.95 81.2882ZM248.893 76.494L235.95 81.2882L237.34 85.0391L250.282 80.245L248.893 76.494ZM253.061 76.494C251.716 75.9959 250.238 75.9959 248.893 76.494L250.282 80.245C250.731 80.0789 251.223 80.0789 251.672 80.245L253.061 76.494ZM266.004 81.2882L253.061 76.494L251.672 80.245L264.614 85.0391L266.004 81.2882ZM268.642 78.9397C269.021 80.4966 267.506 81.8448 266.004 81.2882L264.614 85.0391C269.122 86.7089 273.665 82.6644 272.528 77.9936L268.642 78.9397ZM268.589 78.7224L268.642 78.9397L272.528 77.9936L272.475 77.7762L268.589 78.7224ZM268.642 76.6091C268.736 76.9987 268.715 77.3528 268.62 77.6637L272.444 78.8349C272.747 77.8462 272.795 76.7608 272.528 75.6631L268.642 76.6091ZM267.046 70.0524L268.642 76.6091L272.528 75.6631L270.932 69.1064L267.046 70.0524ZM269.422 65.7866C268.27 66.5781 267.459 67.7238 267.074 69.0026L270.904 70.1562C271.033 69.7283 271.303 69.3476 271.687 69.0839L269.422 65.7866ZM275.471 61.6324L269.422 65.7866L271.687 69.0839L277.735 64.9297L275.471 61.6324ZM276.255 59.4102C276.494 60.2168 276.265 61.0871 275.471 61.6324L277.735 64.9297C280.114 63.296 280.765 60.5542 280.09 58.2747L276.255 59.4102ZM274.542 55.6637C275.865 55.7991 276.615 57.09 276.259 58.2603L280.086 59.4246C281.086 56.139 279.073 52.1066 274.95 51.6845L274.542 55.6637ZM263.287 54.5113L274.542 55.6637L274.95 51.6845L263.694 50.5321L263.287 54.5113ZM258.983 51.9848C259.983 53.4118 261.553 54.3339 263.287 54.5113L263.694 50.5321C263.116 50.473 262.593 50.1656 262.26 49.69L258.983 51.9848ZM252.615 42.8935L258.983 51.9848L262.26 49.69L255.891 40.5986L252.615 42.8935Z" fill="white" mask="url(#path-16-outside-3_14_801)"/>
<g filter="url(#filter3_d_14_801)">
<path d="M247.93 41.7757C249.522 39.5022 252.89 39.5022 254.482 41.7757L260.85 50.8671C261.517 51.8184 262.564 52.4331 263.719 52.5514L274.975 53.7038C278.679 54.083 279.901 58.8725 276.832 60.9802L270.783 65.1344C269.414 66.0749 268.768 67.7638 269.161 69.3778L270.814 76.1658C271.572 79.2797 268.543 81.976 265.538 80.8628L252.595 76.0687C251.699 75.7366 250.713 75.7366 249.816 76.0687L236.874 80.8628C233.869 81.976 230.84 79.2797 231.598 76.1658L233.25 69.3778C233.643 67.7638 232.998 66.0749 231.628 65.1344L225.58 60.9803C222.511 58.8725 223.733 54.083 227.437 53.7038L238.693 52.5514C239.848 52.4331 240.895 51.8184 241.561 50.8671L247.93 41.7757Z" fill="#F6D303"/>
</g>
<defs>
<filter id="filter0_d_14_801" x="35.6895" y="71.5919" width="310.883" height="78.6628" filterUnits="userSpaceOnUse" color-interpolation-filters="sRGB">
<feFlood flood-opacity="0" result="BackgroundImageFix"/>
<feColorMatrix in="SourceAlpha" type="matrix" values="0 0 0 0 0 0 0 0 0 0 0 0 0 0 0 0 0 0 127 0" result="hardAlpha"/>
<feOffset dy="3"/>
<feComposite in2="hardAlpha" operator="out"/>
<feColorMatrix type="matrix" values="0 0 0 0 0.827451 0 0 0 0 0.847059 0 0 0 0 1 0 0 0 1 0"/>
<feBlend mode="normal" in2="BackgroundImageFix" result="effect1_dropShadow_14_801"/>
<feBlend mode="normal" in="SourceGraphic" in2="effect1_dropShadow_14_801" result="shape"/>
</filter>
<filter id="filter1_d_14_801" x="155.266" y="21.1548" width="68.5747" height="53.3236" filterUnits="userSpaceOnUse" color-interpolation-filters="sRGB">
<feFlood flood-opacity="0" result="BackgroundImageFix"/>
<feColorMatrix in="SourceAlpha" type="matrix" values="0 0 0 0 0 0 0 0 0 0 0 0 0 0 0 0 0 0 127 0" result="hardAlpha"/>
<feOffset dy="3"/>
<feComposite in2="hardAlpha" operator="out"/>
<feColorMatrix type="matrix" values="0 0 0 0 1 0 0 0 0 0.392 0 0 0 0 0.2 0 0 0 1 0"/>
<feBlend mode="normal" in2="BackgroundImageFix" result="effect1_dropShadow_14_801"/>
<feBlend mode="normal" in="SourceGraphic" in2="effect1_dropShadow_14_801" result="shape"/>
</filter>
<filter id="filter2_d_14_801" x="99.0811" y="40.0706" width="54.7324" height="44.048" filterUnits="userSpaceOnUse" color-interpolation-filters="sRGB">
<feFlood flood-opacity="0" result="BackgroundImageFix"/>
<feColorMatrix in="SourceAlpha" type="matrix" values="0 0 0 0 0 0 0 0 0 0 0 0 0 0 0 0 0 0 127 0" result="hardAlpha"/>
<feOffset dy="3"/>
<feComposite in2="hardAlpha" operator="out"/>
<feColorMatrix type="matrix" values="0 0 0 0 1 0 0 0 0 0.392 0 0 0 0 0.2 0 0 0 1 0"/>
<feBlend mode="normal" in2="BackgroundImageFix" result="effect1_dropShadow_14_801"/>
<feBlend mode="normal" in="SourceGraphic" in2="effect1_dropShadow_14_801" result="shape"/>
</filter>
<filter id="filter3_d_14_801" x="223.84" y="40.0706" width="54.7324" height="44.048" filterUnits="userSpaceOnUse" color-interpolation-filters="sRGB">
<feFlood flood-opacity="0" result="BackgroundImageFix"/>
<feColorMatrix in="SourceAlpha" type="matrix" values="0 0 0 0 0 0 0 0 0 0 0 0 0 0 0 0 0 0 127 0" result="hardAlpha"/>
<feOffset dy="3"/>
<feComposite in2="hardAlpha" operator="out"/>
<feColorMatrix type="matrix" values="0 0 0 0 1 0 0 0 0 0.392 0 0 0 0 0.2 0 0 0 1 0"/>
<feBlend mode="normal" in2="BackgroundImageFix" result="effect1_dropShadow_14_801"/>
<feBlend mode="normal" in="SourceGraphic" in2="effect1_dropShadow_14_801" result="shape"/>
</filter>
<radialGradient id="paint0_radial_14_801" cx="0" cy="0" r="1" gradientUnits="userSpaceOnUse" gradientTransform="translate(195.03 72.5054) rotate(89.7632) scale(60.6011 194.732)">
<stop stop-color="#FFEE37" stop-opacity="0.56"/>
<stop offset="1" stop-color="#FFF8AC" stop-opacity="0"/>
</radialGradient>
<linearGradient id="paint1_linear_14_801" x1="64.7934" y1="90.5077" x2="64.7934" y2="145.03" gradientUnits="userSpaceOnUse">
<stop stop-color="#4400A7"/>
<stop offset="1" stop-color="#090034"/>
</linearGradient>
<linearGradient id="paint2_linear_14_801" x1="317.468" y1="90.5077" x2="317.468" y2="145.03" gradientUnits="userSpaceOnUse">
<stop stop-color="#4400A7"/>
<stop offset="1" stop-color="#090034"/>
</linearGradient>
<linearGradient id="paint3_linear_14_801" x1="190.341" y1="71.5919" x2="190.341" y2="128.339" gradientUnits="userSpaceOnUse">
<stop stop-color="#4400A7"/>
<stop offset="1" stop-color="#090034"/>
</linearGradient>
</defs>
</svg>
